{"glyphs":{"0":{"ha":833,"x_min":0,"x_max":0,"o":"m 417 850 b 129 417 272 850 129 735 b 417 -17 129 99 272 -17 b 704 417 561 -17 704 99 b 417 850 704 735 561 850 z m 614 417 b 417 61 614 289 589 61 b 219 417 244 61 219 289 b 417 772 219 544 244 772 b 614 417 589 772 614 544 z "},"1":{"ha":833,"x_min":0,"x_max":0,"o":"m 474 778 b 432 850 474 808 475 850 b 394 829 414 850 406 842 b 321 796 379 811 351 801 b 192 794 292 790 261 790 l 206 718 l 244 715 b 388 729 293 713 340 721 l 388 78 l 189 78 l 189 0 l 660 0 l 660 78 l 474 78 z "},"2":{"ha":833,"x_min":0,"x_max":0,"o":"m 617 169 l 568 78 l 260 78 l 286 104 l 513 351 b 642 633 582 428 642 525 b 403 850 642 764 526 850 b 165 654 294 850 165 774 b 203 608 165 631 175 608 b 275 718 253 608 276 661 b 400 772 306 756 353 772 b 551 631 479 772 551 714 b 411 358 551 533 474 425 l 147 76 l 147 0 l 624 0 l 694 150 z "},"3":{"ha":833,"x_min":0,"x_max":0,"o":"m 532 457 b 617 625 589 510 617 543 b 393 850 617 751 521 850 b 229 796 333 850 275 832 b 163 685 196 769 163 729 b 203 639 163 660 176 639 b 285 739 251 639 282 696 b 381 772 311 761 346 772 b 526 615 475 772 526 707 b 369 488 526 519 453 488 b 319 493 353 488 336 490 l 319 408 l 390 415 b 568 238 501 415 568 350 b 367 61 568 117 476 61 b 146 119 292 61 211 81 l 111 50 b 374 -17 189 3 285 -17 b 658 242 528 -17 658 79 b 532 456 658 354 615 393 z "},"4":{"ha":833,"x_min":0,"x_max":0,"o":"m 521 585 l 521 294 l 201 294 b 476 874 314 476 422 665 l 390 897 b 114 292 336 681 228 482 l 114 217 l 521 217 l 521 78 l 382 78 l 382 0 l 726 0 l 726 78 l 607 78 l 607 217 l 726 217 l 726 294 l 607 294 l 607 585 z "},"5":{"ha":833,"x_min":0,"x_max":0,"o":"m 611 833 l 214 833 l 185 467 b 356 494 240 483 297 494 b 558 294 476 494 558 417 b 304 61 558 146 444 61 b 128 99 238 61 188 75 l 106 24 b 308 -17 172 -1 236 -17 b 649 297 493 -17 649 104 b 354 572 649 474 522 572 l 275 565 l 292 756 l 611 756 z "},"6":{"ha":833,"x_min":0,"x_max":0,"o":"m 601 850 b 153 342 297 856 153 624 b 433 -17 153 57 319 -17 b 701 267 592 -17 701 115 b 439 543 701 418 594 543 b 251 467 361 543 310 514 l 250 467 b 601 772 294 658 394 774 z m 243 278 b 438 465 243 386 332 465 b 611 264 549 465 611 365 b 429 61 611 160 539 61 b 243 278 314 61 243 174 z "},"7":{"ha":833,"x_min":0,"x_max":0,"o":"m 147 833 l 147 756 l 551 756 l 228 -17 l 321 -17 l 671 833 z "},"8":{"ha":833,"x_min":0,"x_max":0,"o":"m 417 394 b 610 231 508 383 610 338 b 417 61 610 132 510 61 b 224 231 324 61 224 132 b 417 394 224 338 325 383 z m 417 -17 b 700 231 561 -17 700 82 b 528 442 700 333 626 410 b 669 651 608 482 669 558 b 417 850 669 733 604 850 b 164 651 229 850 164 733 b 306 442 164 558 225 482 b 133 231 207 410 133 333 b 417 -17 133 82 272 -17 z m 417 772 b 579 650 493 772 579 739 b 417 474 579 550 501 511 b 254 650 332 511 254 550 b 417 772 254 739 340 772 z "},"9":{"ha":833,"x_min":0,"x_max":0,"o":"m 204 -12 b 272 -17 226 -14 250 -17 b 688 494 560 -17 688 238 b 413 850 688 772 524 850 b 146 563 251 850 146 717 b 408 292 146 413 256 292 b 596 372 485 292 539 324 l 597 372 b 275 58 568 206 456 40 l 204 65 z m 597 572 b 417 369 597 471 536 369 b 236 572 297 369 236 471 b 417 772 236 675 308 772 b 597 572 525 772 597 675 z "}," ":{"ha":833,"x_min":0,"x_max":0,"o":""},"!":{"ha":833,"x_min":0,"x_max":0,"o":"m 451 214 l 500 775 b 417 850 504 819 460 850 b 333 775 374 850 329 819 l 382 214 z m 335 63 b 417 -17 335 18 372 -17 b 499 63 461 -17 499 18 b 417 142 499 107 460 142 b 335 63 374 142 335 107 z "},"\"":{"ha":833,"x_min":0,"x_max":0,"o":"m 303 438 l 342 692 b 353 797 346 722 353 772 b 267 850 353 818 318 850 b 181 797 215 850 181 818 b 192 692 181 772 188 722 l 231 438 z m 603 438 l 642 692 b 653 797 646 722 653 772 b 567 850 653 818 618 850 b 481 797 515 850 481 818 b 492 692 481 772 488 722 l 531 438 z "},"#":{"ha":833,"x_min":0,"x_max":0,"o":"m 354 1118 l 275 686 l 92 686 l 75 594 l 257 594 l 224 411 l 43 411 l 22 319 l 207 319 l 124 -133 l 228 -133 l 458 1118 z m 474 -133 l 557 319 l 743 319 l 760 411 l 574 411 l 607 594 l 792 594 l 810 686 l 625 686 l 704 1118 l 600 1118 l 369 -133 z "},"$":{"ha":833,"x_min":0,"x_max":0,"o":"m 381 833 b 176 610 272 817 176 724 b 601 243 176 368 601 442 b 424 99 601 146 513 99 b 257 154 376 99 288 111 b 233 268 238 182 235 233 l 140 268 b 160 153 153 231 163 192 l 153 71 b 381 21 211 56 321 21 l 381 -161 l 467 -161 l 467 21 b 692 246 582 32 692 124 b 267 615 692 504 267 440 b 433 756 267 707 347 756 b 574 632 524 756 574 721 l 574 593 l 664 593 l 656 694 b 664 758 654 717 657 738 b 467 833 617 811 553 833 l 467 981 l 381 981 z "},"%":{"ha":833,"x_min":0,"x_max":0,"o":"m 229 811 b 310 671 297 811 310 721 b 229 531 310 621 297 531 b 149 671 161 531 149 621 b 229 811 149 721 161 811 z m 229 850 b 99 671 129 850 99 754 b 229 492 99 588 129 492 b 360 671 329 492 360 588 b 229 850 360 754 329 850 z m 582 879 l 196 -6 l 243 -35 l 629 851 z m 604 303 b 685 163 672 303 685 213 b 604 22 685 113 672 22 b 524 163 536 22 524 113 b 604 303 524 213 536 303 z m 604 342 b 474 163 504 342 474 246 b 604 -17 474 79 504 -17 b 735 163 704 -17 735 79 b 604 342 735 246 704 342 z "},"&":{"ha":833,"x_min":0,"x_max":0,"o":"m 426 319 b 503 168 463 272 479 222 l 518 132 b 375 61 481 89 432 61 b 219 250 271 61 219 156 b 338 438 219 333 257 410 z m 289 499 b 129 250 190 458 129 357 b 365 -17 129 114 219 -17 b 556 56 435 -17 507 7 b 656 -4 588 19 606 -4 b 750 97 717 -4 743 43 l 683 136 b 654 76 679 124 675 76 b 614 122 638 76 621 107 b 679 343 653 190 672 265 l 749 343 l 749 421 l 601 421 b 572 222 600 354 592 288 b 438 449 540 307 493 379 l 390 508 b 308 686 353 557 308 624 b 393 772 308 735 344 772 b 499 697 440 772 471 731 l 561 760 b 397 850 521 813 465 850 b 218 689 307 850 218 786 b 289 499 218 621 250 553 z "},"’":{"ha":833,"x_min":0,"x_max":0,"o":"m 333 547 b 529 738 424 567 529 636 b 428 850 529 796 489 850 b 332 754 372 850 332 810 b 414 669 332 707 368 672 b 333 628 392 647 364 635 z "},"(":{"ha":833,"x_min":0,"x_max":0,"o":"m 657 -97 b 421 407 479 14 421 206 b 657 911 421 607 479 799 l 603 976 b 331 407 410 835 331 642 b 603 -162 331 172 410 -21 z "},")":{"ha":833,"x_min":0,"x_max":0,"o":"m 176 911 b 413 407 354 800 413 608 b 176 -97 413 207 354 15 l 231 -162 b 503 407 424 -21 503 172 b 231 976 503 642 424 835 z "},"*":{"ha":833,"x_min":0,"x_max":0,"o":"m 256 503 b 311 442 256 472 278 442 b 382 500 350 442 369 468 l 411 575 l 422 575 b 511 444 431 528 450 444 b 569 504 543 444 569 472 b 499 586 569 544 528 568 l 467 606 l 472 614 b 633 682 519 621 633 606 b 569 740 633 717 601 740 b 458 676 533 740 486 696 l 449 686 b 478 788 458 714 478 757 b 421 850 478 821 457 850 b 358 789 386 850 358 824 b 383 688 358 760 376 715 l 371 679 b 257 746 338 707 300 746 b 200 692 229 746 200 721 b 307 624 200 628 271 628 b 356 619 326 621 344 619 l 358 607 l 293 560 b 256 503 275 546 256 528 z "},"+":{"ha":833,"x_min":0,"x_max":0,"o":"m 799 546 l 465 546 l 465 875 l 368 875 l 368 546 l 35 546 l 35 454 l 368 454 l 368 125 l 465 125 l 465 454 l 799 454 z "},",":{"ha":833,"x_min":0,"x_max":0,"o":"m 333 -136 b 529 54 424 -117 529 -47 b 428 167 529 113 489 167 b 332 71 372 167 332 126 b 414 -14 332 24 368 -11 b 333 -56 392 -36 364 -49 z "},"-":{"ha":833,"x_min":0,"x_max":0,"o":"m 594 378 l 594 456 l 236 456 l 236 378 z "},".":{"ha":833,"x_min":0,"x_max":0,"o":"m 319 79 b 417 -17 319 25 364 -17 b 514 79 469 -17 514 25 b 417 175 514 132 469 175 b 319 79 364 175 319 132 z "},"/":{"ha":833,"x_min":0,"x_max":0,"o":"m 260 -37 l 678 1038 l 574 1038 l 156 -37 z "},":":{"ha":833,"x_min":0,"x_max":0,"o":"m 319 79 b 417 -17 319 25 364 -17 b 514 79 469 -17 514 25 b 417 175 514 132 469 175 b 319 79 364 175 319 132 z m 319 496 b 417 400 319 442 364 400 b 514 496 469 400 514 442 b 417 592 514 549 469 592 b 319 496 364 592 319 549 z "},";":{"ha":833,"x_min":0,"x_max":0,"o":"m 333 -136 b 529 54 424 -117 529 -47 b 428 167 529 113 489 167 b 332 71 372 167 332 126 b 414 -14 332 24 368 -11 b 333 -56 392 -36 364 -49 z m 332 496 b 429 400 332 442 376 400 b 526 496 482 400 526 442 b 429 592 526 549 482 592 b 332 496 376 592 332 549 z "},"<":{"ha":833,"x_min":0,"x_max":0,"o":"m 114 500 l 660 0 l 718 72 l 256 500 l 718 928 l 660 1000 z "},"=":{"ha":833,"x_min":0,"x_max":0,"o":"m 799 628 l 35 628 l 35 536 l 799 536 z m 799 464 l 35 464 l 35 372 l 799 372 z "},">":{"ha":833,"x_min":0,"x_max":0,"o":"m 172 1000 l 114 928 l 576 500 l 114 72 l 172 0 l 718 500 z "},"?":{"ha":833,"x_min":0,"x_max":0,"o":"m 417 214 l 417 251 b 601 654 417 446 601 458 b 394 850 601 769 500 850 b 164 640 263 850 164 753 b 219 564 164 603 174 564 b 265 621 250 564 265 594 b 257 665 265 636 263 651 b 394 772 267 733 328 772 b 513 644 465 772 513 713 b 333 263 513 511 333 458 l 333 214 z m 293 63 b 375 -17 293 18 331 -17 b 457 63 419 -17 457 18 b 375 142 457 107 418 142 b 293 63 332 142 293 107 z "},"@":{"ha":833,"x_min":0,"x_max":0,"o":"m 679 160 b 397 61 592 106 503 61 b 140 347 226 61 140 176 b 442 772 140 672 340 772 b 692 492 575 772 692 665 b 585 285 692 429 669 285 b 540 342 554 285 540 313 b 551 411 540 358 549 394 l 582 601 l 479 601 b 238 332 363 601 238 499 b 357 207 238 256 288 207 b 476 264 410 207 438 229 b 583 207 513 226 531 207 b 782 500 729 207 782 382 b 443 850 782 697 643 850 b 50 347 182 850 50 576 b 390 -17 50 111 208 -17 b 711 82 504 -17 617 22 z m 464 428 b 363 285 446 343 410 285 b 328 332 338 285 328 310 b 386 483 328 378 357 449 b 483 519 410 511 449 513 z "},"A":{"ha":833,"x_min":0,"x_max":0,"o":"m 411 911 l 96 78 l 26 78 l 26 0 l 304 0 l 304 78 l 183 78 l 249 257 l 579 257 l 646 78 l 526 78 l 526 0 l 807 0 l 807 78 l 738 78 z m 551 335 l 275 335 l 411 717 z "},"B":{"ha":833,"x_min":0,"x_max":0,"o":"m 311 410 l 421 410 b 663 232 610 410 663 322 b 476 64 663 128 589 53 l 394 72 l 311 81 z m 99 -15 b 283 17 151 -1 218 17 b 514 0 360 17 438 0 b 753 231 649 0 753 75 b 572 465 753 351 685 429 b 683 647 636 501 683 575 b 468 833 683 767 578 833 b 236 817 390 833 314 817 b 81 833 185 817 132 828 l 81 749 l 225 739 l 225 78 l 79 50 z m 311 740 b 461 756 360 749 411 756 b 593 643 535 756 593 721 b 372 488 593 568 543 488 l 311 488 z "},"C":{"ha":833,"x_min":0,"x_max":0,"o":"m 644 803 b 454 850 588 832 519 850 b 110 425 301 850 110 743 b 451 -17 110 99 301 -17 b 736 108 561 -17 658 33 l 736 286 l 650 286 b 456 61 650 156 597 61 b 200 418 269 61 200 261 b 458 772 200 579 265 772 b 640 560 603 772 635 688 l 722 574 l 715 679 b 740 825 713 729 721 779 l 663 850 z "},"D":{"ha":833,"x_min":0,"x_max":0,"o":"m 172 78 l 58 67 l 71 -11 l 214 6 b 400 0 275 13 338 0 b 739 411 586 0 739 106 b 368 833 739 703 569 833 b 197 817 304 833 251 817 b 65 833 153 817 110 828 l 63 768 l 172 744 z m 258 744 l 358 756 b 649 394 481 769 649 672 b 397 78 649 161 547 78 l 258 78 z "},"E":{"ha":833,"x_min":0,"x_max":0,"o":"m 743 0 l 743 271 l 657 271 l 657 244 b 542 78 657 90 647 78 l 282 78 l 282 415 l 472 415 l 472 285 l 558 285 l 558 610 l 472 610 l 472 493 l 282 493 l 282 756 l 517 756 b 631 628 626 756 631 743 l 631 592 l 717 592 l 717 833 l 57 833 l 57 756 l 196 756 l 196 78 l 57 78 l 57 0 z "},"F":{"ha":833,"x_min":0,"x_max":0,"o":"m 76 833 l 76 756 l 213 756 l 213 78 l 76 78 l 76 0 l 543 0 l 543 78 l 299 78 l 299 393 l 489 393 l 489 263 l 575 263 l 575 589 l 489 589 l 489 471 l 299 471 l 299 756 l 532 756 b 647 628 642 756 647 739 l 647 592 l 733 592 l 733 833 z "},"G":{"ha":833,"x_min":0,"x_max":0,"o":"m 629 797 b 438 850 563 831 514 850 b 83 417 271 850 83 733 b 432 -17 83 207 194 -17 b 717 110 536 -17 643 38 l 717 285 l 801 285 l 801 363 l 446 363 l 446 285 l 631 285 l 631 256 b 613 138 631 218 635 168 b 419 61 575 85 482 61 b 174 432 306 61 174 172 b 438 772 174 708 338 772 b 589 703 518 772 563 746 b 624 558 611 665 619 617 l 711 571 b 699 689 704 610 699 649 b 721 829 699 736 707 783 l 649 851 z "},"H":{"ha":833,"x_min":0,"x_max":0,"o":"m 46 833 l 46 756 l 161 756 l 161 78 l 46 78 l 46 0 l 363 0 l 363 78 l 247 78 l 247 389 l 586 389 l 586 78 l 471 78 l 471 0 l 788 0 l 788 78 l 672 78 l 672 756 l 788 756 l 788 833 l 471 833 l 471 756 l 586 756 l 586 467 l 247 467 l 247 756 l 363 756 l 363 833 z "},"I":{"ha":833,"x_min":0,"x_max":0,"o":"m 151 833 l 151 756 l 374 756 l 374 78 l 151 78 l 151 0 l 682 0 l 682 78 l 460 78 l 460 756 l 682 756 l 682 833 z "},"J":{"ha":833,"x_min":0,"x_max":0,"o":"m 350 833 l 350 756 l 524 756 l 524 226 b 379 61 524 111 517 61 b 215 108 290 61 242 79 b 183 244 185 142 183 192 l 183 279 l 97 279 l 97 60 b 364 -17 186 7 278 -17 b 610 193 549 -17 610 39 l 610 756 l 751 756 l 751 833 z "},"K":{"ha":833,"x_min":0,"x_max":0,"o":"m 46 833 l 46 756 l 158 756 l 158 78 l 46 78 l 46 0 l 357 0 l 357 78 l 244 78 l 244 372 b 326 399 274 376 301 385 l 585 78 l 501 78 l 501 0 l 819 0 l 819 78 l 696 78 l 403 442 b 669 756 514 524 599 639 l 781 756 l 781 833 l 471 833 l 471 756 l 572 756 b 397 542 518 669 456 596 b 244 450 342 490 288 457 l 244 756 l 357 756 l 357 833 z "},"L":{"ha":833,"x_min":0,"x_max":0,"o":"m 61 833 l 61 756 l 211 756 l 211 78 l 61 78 l 61 0 l 751 0 l 751 292 l 665 292 l 665 253 b 517 78 665 104 669 78 l 297 78 l 297 756 l 454 756 l 454 833 z "},"M":{"ha":833,"x_min":0,"x_max":0,"o":"m 708 756 l 806 756 l 806 833 l 607 833 l 417 418 l 226 833 l 28 833 l 28 756 l 125 756 l 125 78 l 28 78 l 28 0 l 326 0 l 326 78 l 211 78 l 211 669 l 214 669 l 417 224 l 619 669 l 622 669 l 622 78 l 508 78 l 508 0 l 806 0 l 806 78 l 708 78 z "},"N":{"ha":833,"x_min":0,"x_max":0,"o":"m 708 756 l 796 756 l 796 833 l 492 833 l 492 756 l 622 756 l 622 160 l 619 160 l 235 833 l 36 833 l 36 756 l 139 756 l 139 78 l 36 78 l 36 0 l 353 0 l 353 78 l 225 78 l 225 678 l 228 678 l 619 0 l 708 0 z "},"O":{"ha":833,"x_min":0,"x_max":0,"o":"m 417 -17 b 750 417 647 -17 750 206 b 417 850 750 628 647 850 b 83 417 186 850 83 628 b 417 -17 83 206 186 -17 z m 417 61 b 174 417 238 61 174 258 b 417 772 174 575 238 772 b 660 417 596 772 660 575 b 417 61 660 258 596 61 z "},"P":{"ha":833,"x_min":0,"x_max":0,"o":"m 301 357 l 419 354 b 726 615 622 350 726 458 b 482 833 726 771 614 833 b 244 817 403 833 324 817 b 100 833 196 817 149 828 l 100 767 l 215 753 l 215 78 l 100 78 l 100 0 l 510 0 l 510 78 l 301 78 z m 301 753 b 465 769 356 758 410 769 b 636 614 563 769 636 718 b 417 432 636 497 565 428 l 301 435 z "},"Q":{"ha":833,"x_min":0,"x_max":0,"o":"m 625 65 b 750 417 721 181 750 285 b 417 850 750 628 647 850 b 83 417 186 850 83 628 b 417 -17 83 206 186 -17 b 554 17 457 -17 508 -6 l 646 -121 l 799 -121 l 799 -43 l 699 -43 z m 510 83 b 417 61 478 68 450 61 b 174 417 238 61 174 258 b 417 772 174 575 238 772 b 660 417 596 772 660 575 b 576 135 660 310 639 224 l 463 304 l 397 251 z "},"R":{"ha":833,"x_min":0,"x_max":0,"o":"m 801 78 l 701 78 l 488 393 b 668 618 597 425 668 500 b 403 833 668 771 540 833 b 189 817 332 833 260 817 b 61 833 142 817 104 824 l 61 760 l 175 746 l 175 78 l 61 78 l 61 0 l 393 0 l 393 78 l 261 78 l 261 379 l 396 379 l 649 0 l 801 0 z m 261 746 b 404 756 311 751 358 756 b 578 608 501 756 578 714 b 333 453 578 518 510 450 l 261 454 z "},"S":{"ha":833,"x_min":0,"x_max":0,"o":"m 697 218 b 249 631 697 529 249 407 b 432 772 249 736 356 772 b 579 708 494 772 553 757 b 599 579 597 674 596 618 l 683 592 b 671 714 675 632 667 672 l 683 853 l 600 868 l 592 814 b 435 850 547 838 485 850 b 158 625 300 850 158 775 b 607 210 158 321 607 457 b 426 61 607 104 508 61 b 229 210 297 61 242 111 l 221 276 l 138 264 b 151 140 146 224 156 182 l 138 -7 l 221 -18 l 225 33 b 419 -17 292 -1 343 -17 b 697 218 576 -17 697 78 z "},"T":{"ha":833,"x_min":0,"x_max":0,"o":"m 642 0 l 642 78 l 460 78 l 460 756 l 572 756 b 676 646 668 756 676 743 l 676 540 l 763 540 l 763 833 l 71 833 l 71 540 l 157 540 l 157 646 b 261 756 157 743 165 756 l 374 756 l 374 78 l 192 78 l 192 0 z "},"U":{"ha":833,"x_min":0,"x_max":0,"o":"m 490 833 l 490 756 l 593 756 l 593 256 b 417 61 593 106 531 61 b 240 256 303 61 240 106 l 240 756 l 343 756 l 343 833 l 61 833 l 61 756 l 154 756 l 154 243 b 417 -17 154 63 243 -17 b 679 243 590 -17 679 63 l 679 756 l 772 756 l 772 833 z "},"V":{"ha":833,"x_min":0,"x_max":0,"o":"m 39 833 l 39 756 l 128 756 l 364 -17 l 468 -17 l 706 756 l 794 756 l 794 833 l 504 833 l 504 756 l 618 756 l 417 106 l 214 756 l 329 756 l 329 833 z "},"W":{"ha":833,"x_min":0,"x_max":0,"o":"m 29 833 l 29 756 l 89 756 l 201 -17 l 285 -17 l 417 346 l 549 -17 l 632 -17 l 744 756 l 804 756 l 804 833 l 553 833 l 553 756 l 661 756 l 574 153 l 571 153 l 417 585 l 263 153 l 260 153 l 172 756 l 281 756 l 281 833 z "},"X":{"ha":833,"x_min":0,"x_max":0,"o":"m 417 499 l 251 756 l 351 756 l 351 833 l 74 833 l 74 756 l 157 756 l 367 431 l 131 78 l 40 78 l 40 0 l 351 0 l 351 78 l 228 78 l 417 358 l 606 78 l 482 78 l 482 0 l 793 0 l 793 78 l 703 78 l 467 431 l 676 756 l 760 756 l 760 833 l 483 833 l 483 756 l 583 756 z "},"Y":{"ha":833,"x_min":0,"x_max":0,"o":"m 43 833 l 43 756 l 129 756 l 374 361 l 374 78 l 192 78 l 192 0 l 642 0 l 642 78 l 460 78 l 460 361 l 704 756 l 790 756 l 790 833 l 496 833 l 496 756 l 610 756 l 417 442 l 224 756 l 338 756 l 338 833 z "},"Z":{"ha":833,"x_min":0,"x_max":0,"o":"m 124 833 l 124 563 l 210 563 l 210 600 b 324 756 210 740 221 756 l 578 756 l 106 67 l 106 0 l 729 0 l 729 271 l 643 271 l 643 233 b 529 78 643 90 632 78 l 211 78 l 682 767 l 682 833 z "},"[":{"ha":833,"x_min":0,"x_max":0,"o":"m 679 976 l 392 976 l 392 -151 l 679 -151 l 679 -74 l 478 -74 l 478 899 l 679 899 z "},"\\":{"ha":833,"x_min":0,"x_max":0,"o":"m 574 -37 l 678 -37 l 260 1038 l 156 1038 z "},"]":{"ha":833,"x_min":0,"x_max":0,"o":"m 154 899 l 356 899 l 356 -74 l 154 -74 l 154 -151 l 442 -151 l 442 976 l 154 976 z "},"^":{"ha":833,"x_min":0,"x_max":0,"o":"m 246 496 l 417 832 l 588 496 l 690 496 l 463 944 l 371 944 l 143 496 z "},"_":{"ha":833,"x_min":0,"x_max":0,"o":"m 833 -150 l 833 -100 l 0 -100 l 0 -150 z "},"‘":{"ha":833,"x_min":0,"x_max":0,"o":"m 528 850 b 332 660 438 831 332 761 b 433 547 332 601 372 547 b 529 643 489 547 529 588 b 447 728 529 690 493 725 b 528 769 469 750 497 763 z "},"a":{"ha":833,"x_min":0,"x_max":0,"o":"m 549 0 l 750 0 l 750 78 l 635 78 l 635 418 b 443 592 635 554 585 592 b 172 511 353 592 253 560 l 172 378 l 258 378 l 258 460 b 456 514 317 499 386 514 b 549 383 561 514 549 463 l 549 347 b 285 319 456 344 371 340 b 101 143 189 297 101 257 b 296 -17 101 31 194 -17 b 549 42 385 -17 465 7 z m 549 129 b 300 61 471 93 386 61 b 192 143 244 61 192 78 b 308 246 192 213 251 232 b 549 274 383 264 469 271 z "},"b":{"ha":833,"x_min":0,"x_max":0,"o":"m 261 454 b 431 514 311 494 367 514 b 621 288 557 514 621 401 b 410 61 621 157 544 61 b 261 119 357 61 297 79 z m 175 108 b 133 0 175 50 168 49 l 206 -36 b 250 33 222 -14 239 8 b 414 -17 300 1 353 -17 b 711 294 594 -17 711 118 b 431 592 711 460 603 592 b 261 549 365 592 321 575 l 261 842 b 221 911 261 872 261 911 b 183 888 203 911 194 900 b 38 847 151 850 82 856 l 50 776 l 175 793 z "},"c":{"ha":833,"x_min":0,"x_max":0,"o":"m 676 122 b 440 61 606 86 519 61 b 210 292 303 61 210 154 b 431 514 210 421 301 514 b 564 393 518 514 567 483 l 563 354 l 651 354 l 647 425 l 650 494 b 438 592 611 568 514 592 b 119 282 257 592 119 465 b 438 -17 119 100 261 -17 b 707 51 526 -17 628 8 z "},"d":{"ha":833,"x_min":0,"x_max":0,"o":"m 546 111 b 399 61 504 81 451 61 b 201 282 279 61 201 169 b 413 514 201 408 279 514 b 546 475 460 514 506 499 z m 546 0 l 740 0 l 740 78 l 632 78 l 632 842 b 592 911 632 872 632 911 b 554 888 574 911 565 900 b 408 847 522 850 453 856 l 421 776 l 546 793 l 546 563 b 393 592 499 576 442 592 b 111 283 226 592 111 442 b 393 -17 111 125 229 -17 b 546 22 451 -17 493 0 z "},"e":{"ha":833,"x_min":0,"x_max":0,"o":"m 708 254 b 714 313 713 274 714 293 b 431 592 714 485 601 592 b 121 275 251 592 121 453 b 451 -17 121 150 200 -17 b 744 56 549 -17 657 13 l 719 126 b 463 61 633 89 550 61 b 211 254 314 61 219 133 z m 211 332 b 432 514 232 436 326 514 b 626 332 536 514 626 440 z "},"f":{"ha":833,"x_min":0,"x_max":0,"o":"m 790 781 b 499 865 710 833 596 865 b 314 657 371 865 314 813 l 314 575 l 110 575 l 110 497 l 314 497 l 314 78 l 151 78 l 151 0 l 646 0 l 646 78 l 400 78 l 400 497 l 676 497 l 676 575 l 400 575 l 400 651 b 497 788 400 724 403 788 b 736 713 579 788 667 763 z "},"g":{"ha":833,"x_min":0,"x_max":0,"o":"m 404 -211 b 211 -124 343 -211 211 -208 b 310 0 211 -64 265 -31 l 544 0 b 665 -82 606 0 665 -6 b 404 -211 665 -194 496 -211 z m 482 575 b 371 592 446 585 408 592 b 150 368 251 592 150 488 b 261 185 150 282 189 228 b 186 81 228 154 186 119 b 215 22 186 50 201 32 b 122 -128 164 -10 122 -67 b 413 -289 122 -274 304 -289 b 756 -72 551 -289 756 -249 b 558 78 756 29 682 78 l 346 78 b 276 88 325 78 276 78 b 346 157 276 104 329 149 l 393 153 b 622 369 526 153 622 232 b 581 497 622 422 608 454 l 682 497 l 682 575 z m 532 368 b 396 231 532 289 489 231 b 240 375 304 231 240 281 b 392 514 240 460 310 514 b 532 368 478 514 532 453 z "},"h":{"ha":833,"x_min":0,"x_max":0,"o":"m 253 842 b 213 911 253 872 253 911 b 175 888 194 911 186 900 b 29 847 143 850 74 856 l 42 776 l 167 793 l 167 78 l 72 78 l 72 0 l 347 0 l 347 78 l 253 78 l 253 436 b 474 514 318 476 394 514 b 582 335 588 514 582 419 l 582 78 l 488 78 l 488 0 l 763 0 l 763 78 l 668 78 l 668 338 b 644 504 668 392 669 456 b 474 592 613 567 540 592 b 253 525 393 592 324 558 z "},"i":{"ha":833,"x_min":0,"x_max":0,"o":"m 142 0 l 749 0 l 749 78 l 504 78 l 504 543 b 463 615 504 574 506 615 b 425 594 444 615 436 607 b 269 556 394 558 313 553 l 143 564 l 157 488 l 275 481 b 418 494 324 478 371 486 l 418 78 l 142 78 z m 536 804 b 447 892 536 854 494 892 b 357 804 399 892 357 854 b 447 718 357 756 399 718 b 536 804 494 718 536 756 z "},"j":{"ha":833,"x_min":0,"x_max":0,"o":"m 561 543 b 519 615 561 574 563 615 b 482 594 501 615 493 607 b 326 556 451 558 369 553 l 200 564 l 214 488 l 332 481 b 475 494 381 478 428 486 l 475 -26 b 369 -211 475 -111 486 -211 b 139 -136 288 -211 207 -182 l 83 -206 b 375 -289 167 -261 276 -289 b 546 -182 451 -289 522 -258 b 561 4 564 -125 561 -56 z m 610 804 b 521 892 610 854 568 892 b 431 804 472 892 431 854 b 521 718 431 756 472 718 b 610 804 568 718 610 756 z "},"k":{"ha":833,"x_min":0,"x_max":0,"o":"m 265 842 b 225 911 265 872 265 911 b 188 888 207 911 199 900 b 42 847 156 850 86 856 l 54 776 l 179 793 l 179 78 l 47 78 l 47 0 l 369 0 l 369 78 l 265 78 l 265 185 l 394 294 l 568 78 l 506 78 l 506 0 l 778 0 l 778 78 l 671 78 l 454 347 l 613 497 l 711 497 l 711 575 l 442 575 l 442 497 l 500 497 l 265 282 z "},"l":{"ha":833,"x_min":0,"x_max":0,"o":"m 471 839 b 429 911 471 869 472 911 b 392 890 411 911 403 903 b 236 851 361 854 279 851 l 147 850 l 161 774 l 242 776 b 385 790 290 778 338 782 l 385 78 l 125 78 l 125 0 l 703 0 l 703 78 l 471 78 z "},"m":{"ha":833,"x_min":0,"x_max":0,"o":"m 213 456 b 338 514 247 482 292 514 b 386 400 390 514 386 436 l 386 78 l 329 78 l 329 0 l 529 0 l 529 78 l 472 78 l 472 456 b 594 514 504 483 551 514 b 646 400 654 514 646 442 l 646 78 l 589 78 l 589 0 l 815 0 l 815 78 l 732 78 l 732 400 b 722 508 732 436 732 474 b 604 592 708 563 658 592 b 444 535 546 592 490 569 b 340 592 424 572 383 592 b 213 546 293 592 251 571 b 172 615 213 576 213 615 b 135 592 154 615 146 604 b 13 554 103 563 57 557 l 25 483 l 126 497 l 126 78 l 43 78 l 43 0 l 269 0 l 269 78 l 213 78 z "},"n":{"ha":833,"x_min":0,"x_max":0,"o":"m 253 436 b 474 514 318 476 394 514 b 582 335 588 514 582 419 l 582 78 l 488 78 l 488 0 l 763 0 l 763 78 l 668 78 l 668 338 b 644 504 668 392 669 456 b 474 592 613 567 540 592 b 253 525 393 592 324 558 l 253 546 b 213 615 253 576 253 615 b 175 592 194 615 186 604 b 53 554 143 563 97 557 l 65 483 l 167 497 l 167 78 l 72 78 l 72 0 l 347 0 l 347 78 l 253 78 z "},"o":{"ha":833,"x_min":0,"x_max":0,"o":"m 417 -17 b 719 288 589 -17 719 117 b 417 592 719 460 589 592 b 114 288 244 592 114 460 b 417 -17 114 117 244 -17 z m 417 61 b 204 288 289 61 204 165 b 417 514 204 411 289 514 b 629 288 544 514 629 411 b 417 61 629 165 544 61 z "},"p":{"ha":833,"x_min":0,"x_max":0,"o":"m 283 422 b 447 514 318 474 385 514 b 628 290 567 514 628 397 b 415 61 628 168 543 61 b 283 96 368 61 325 72 z m 283 10 b 436 -17 333 -4 383 -17 b 718 290 517 -17 718 57 b 449 592 718 449 618 592 b 283 531 379 592 339 567 l 283 546 b 243 615 283 576 283 615 b 206 592 225 615 217 604 b 83 554 174 563 128 557 l 96 483 l 197 497 l 197 -196 l 114 -196 l 114 -274 l 417 -274 l 417 -196 l 283 -196 z "},"q":{"ha":833,"x_min":0,"x_max":0,"o":"m 643 472 b 674 596 643 528 651 546 l 599 626 l 569 551 b 415 592 515 578 478 592 b 128 282 322 592 128 521 b 422 -17 128 100 240 -17 b 490 -14 444 -17 467 -17 l 557 -8 l 557 -196 l 404 -196 l 404 -274 l 765 -274 l 765 -196 l 643 -196 z m 557 69 b 449 61 521 63 485 61 b 218 275 307 61 218 125 b 418 514 218 396 286 514 b 557 474 464 514 519 499 z "},"r":{"ha":833,"x_min":0,"x_max":0,"o":"m 349 367 b 590 514 403 415 519 514 b 653 444 628 514 642 474 l 739 479 b 599 592 717 543 671 592 b 349 471 499 592 425 526 l 349 544 b 308 614 349 575 349 614 b 271 590 290 614 282 603 b 149 553 239 561 193 556 l 161 482 l 263 496 l 263 78 l 142 78 l 142 0 l 600 0 l 600 78 l 349 78 z "},"s":{"ha":833,"x_min":0,"x_max":0,"o":"m 597 560 b 419 592 539 579 481 592 b 171 406 299 592 171 533 b 604 153 171 169 604 307 b 433 61 604 76 485 61 b 225 225 267 61 242 110 l 139 214 b 157 111 153 182 157 146 b 140 0 157 74 151 36 l 214 -22 l 228 28 b 426 -17 299 -3 349 -17 b 694 151 535 -17 694 18 b 261 411 694 390 261 264 b 422 514 261 494 357 514 b 590 406 560 514 581 474 l 594 375 l 678 382 b 668 471 671 411 668 440 b 688 606 668 517 676 561 l 611 621 z "},"t":{"ha":833,"x_min":0,"x_max":0,"o":"m 365 729 l 279 729 l 279 575 l 79 575 l 79 497 l 279 497 l 279 181 b 446 -17 279 44 342 -17 b 725 33 532 -17 640 10 l 697 107 b 454 61 624 85 529 61 b 365 219 357 61 365 147 l 365 497 l 689 497 l 689 575 l 365 575 z "},"u":{"ha":833,"x_min":0,"x_max":0,"o":"m 581 0 l 778 0 l 778 78 l 667 78 l 667 546 b 626 615 667 576 667 615 b 589 592 608 615 600 604 b 467 554 557 563 511 557 l 479 483 l 581 497 l 581 119 b 378 61 519 89 447 61 b 254 249 286 61 254 106 l 254 546 b 214 615 254 576 254 615 b 176 592 196 615 188 604 b 54 554 144 563 99 557 l 67 483 l 168 497 l 168 221 b 379 -17 168 54 246 -17 b 581 35 456 -17 513 7 z "},"v":{"ha":833,"x_min":0,"x_max":0,"o":"m 61 575 l 61 497 l 154 497 l 375 -17 l 458 -17 l 679 497 l 772 497 l 772 575 l 510 575 l 510 497 l 594 497 l 417 79 l 239 497 l 324 497 l 324 575 z "},"w":{"ha":833,"x_min":0,"x_max":0,"o":"m 7 575 l 7 497 l 100 497 l 242 -17 l 340 -17 l 428 254 l 521 -17 l 617 -17 l 754 497 l 826 497 l 826 575 l 572 575 l 572 497 l 676 497 l 565 97 l 454 424 l 401 424 l 294 97 l 181 497 l 279 497 l 279 575 z "},"x":{"ha":833,"x_min":0,"x_max":0,"o":"m 61 575 l 61 497 l 151 497 l 346 304 l 133 78 l 47 78 l 47 0 l 369 0 l 369 78 l 243 78 l 403 247 l 572 78 l 456 78 l 456 0 l 788 0 l 788 78 l 688 78 l 460 306 l 640 497 l 742 497 l 742 575 l 444 575 l 444 497 l 531 497 l 403 364 l 268 497 l 369 497 l 369 575 z "},"y":{"ha":833,"x_min":0,"x_max":0,"o":"m 56 575 l 56 497 l 143 497 l 381 39 l 338 -57 b 204 -211 313 -112 276 -211 b 79 -164 158 -211 114 -192 l 46 -239 b 200 -289 89 -269 146 -289 b 418 -82 332 -289 372 -185 l 675 497 l 764 497 l 764 575 l 476 575 l 476 497 l 586 497 l 424 136 l 236 497 l 344 497 l 344 575 z "},"z":{"ha":833,"x_min":0,"x_max":0,"o":"m 171 575 l 143 368 l 226 368 l 231 396 b 325 497 244 493 231 497 l 553 497 l 129 75 l 129 0 l 678 0 l 704 210 l 624 210 l 610 129 b 531 78 599 72 596 78 l 249 78 l 679 508 l 679 575 z "},"{":{"ha":833,"x_min":0,"x_max":0,"o":"m 635 6 b 449 140 510 6 449 11 l 449 278 b 392 419 449 338 451 388 b 449 561 451 451 449 501 l 449 699 b 635 833 449 828 510 833 l 635 911 l 618 911 b 363 725 463 911 363 904 l 363 553 b 225 421 363 442 331 447 l 225 418 b 363 286 331 392 363 397 l 363 114 b 618 -72 363 -65 463 -72 l 635 -72 z "},"|":{"ha":833,"x_min":0,"x_max":0,"o":"m 371 -400 l 463 -400 l 463 1100 l 371 1100 z "},"}":{"ha":833,"x_min":0,"x_max":0,"o":"m 201 833 b 388 699 326 833 388 828 l 388 561 b 444 419 388 501 385 451 b 388 278 385 388 388 338 l 388 140 b 201 6 388 11 326 6 l 201 -72 l 218 -72 b 474 114 374 -72 474 -65 l 474 286 b 611 418 474 397 506 392 l 611 421 b 474 553 506 447 474 442 l 474 725 b 218 911 474 904 374 911 l 201 911 z "},"~":{"ha":833,"x_min":0,"x_max":0,"o":"m 254 603 b 25 418 138 603 78 508 l 97 364 b 254 511 135 424 172 511 b 381 471 293 511 344 486 b 581 408 433 450 525 408 b 807 583 683 408 764 499 l 735 636 b 579 500 708 579 650 500 b 431 551 546 500 490 525 b 254 603 371 578 306 603 z "},"¡":{"ha":833,"x_min":0,"x_max":0,"o":"m 382 363 l 333 -199 b 417 -274 329 -243 374 -274 b 500 -199 460 -274 504 -243 l 451 363 z m 335 513 b 417 433 335 468 372 433 b 499 513 461 433 499 468 b 417 592 499 557 460 592 b 335 513 374 592 335 557 z "},"¢":{"ha":833,"x_min":0,"x_max":0,"o":"m 393 882 l 393 732 b 144 428 243 692 144 606 b 393 121 144 278 243 151 l 393 -58 l 479 -58 l 479 121 b 728 190 565 126 650 150 l 697 263 b 453 199 622 228 538 199 b 235 433 321 199 235 307 b 447 654 235 554 322 654 b 588 538 543 654 588 624 l 588 497 l 675 497 l 671 585 l 675 640 b 479 732 633 706 553 726 l 479 882 z "},"£":{"ha":833,"x_min":0,"x_max":0,"o":"m 340 147 b 247 61 333 106 292 61 b 183 129 210 61 183 92 b 251 200 183 172 207 200 b 340 147 292 200 315 175 z m 293 390 l 336 254 b 229 278 301 265 267 278 b 93 129 142 278 93 203 b 243 -17 93 47 164 -17 b 399 81 322 -17 353 24 b 571 -17 443 32 501 -17 b 735 183 682 -17 736 85 l 656 196 b 568 61 657 140 638 61 b 424 172 519 61 453 132 l 425 193 b 381 390 429 263 401 326 l 564 390 l 564 468 l 357 468 b 331 611 339 517 331 558 b 476 772 331 704 379 772 b 622 674 535 772 611 738 b 599 613 607 656 599 638 b 650 549 599 581 615 549 b 713 646 696 549 713 610 b 475 850 713 768 594 850 b 240 608 329 850 240 753 b 267 468 240 558 251 514 l 117 468 l 117 390 z "},"⁄":{"ha":833,"x_min":0,"x_max":0,"o":"m 582 879 l 196 -6 l 251 -39 l 638 847 z "},"¥":{"ha":833,"x_min":0,"x_max":0,"o":"m 500 425 l 706 756 l 790 756 l 790 833 l 497 833 l 497 756 l 611 756 l 418 442 l 225 756 l 339 756 l 339 833 l 44 833 l 44 756 l 131 756 l 336 425 l 178 425 l 178 347 l 375 347 l 375 78 l 193 78 l 193 0 l 643 0 l 643 78 l 461 78 l 461 347 l 660 347 l 660 425 z "},"ƒ":{"ha":833,"x_min":0,"x_max":0,"o":"m 386 458 l 339 83 b 226 -68 322 -51 311 -68 l 174 -68 l 174 -146 l 236 -146 b 422 72 382 -146 407 -50 l 471 458 l 617 458 l 617 536 l 481 536 l 493 636 b 594 788 501 706 503 788 l 658 788 l 658 865 l 599 865 b 475 822 546 865 506 849 b 411 683 438 789 417 738 l 396 536 l 238 536 l 238 458 z "},"§":{"ha":833,"x_min":0,"x_max":0,"o":"m 350 306 b 261 431 308 336 261 374 b 308 513 261 468 283 489 l 497 369 b 572 260 533 342 572 308 b 522 176 572 225 553 193 z m 397 544 b 301 672 356 575 301 615 b 417 772 301 739 356 772 b 536 703 458 772 528 751 b 526 660 531 689 526 675 b 574 610 526 631 544 610 b 619 679 610 610 619 651 b 413 850 619 789 511 850 b 211 671 307 850 211 785 b 250 564 211 635 225 592 b 171 435 210 528 171 494 b 278 261 171 357 219 306 l 418 153 b 536 11 464 118 536 75 b 421 -83 536 -54 479 -83 b 301 -11 367 -83 322 -62 b 311 26 307 3 311 13 b 263 89 311 54 294 89 b 214 17 224 89 214 49 b 424 -161 214 -96 324 -161 b 626 1 518 -161 626 -104 b 576 124 626 51 610 88 b 663 261 626 157 663 199 b 525 449 663 347 586 403 z "},"¤":{"ha":833,"x_min":0,"x_max":0,"o":"m 167 703 b 97 500 121 640 97 578 b 167 297 97 422 121 360 l 15 149 l 61 104 l 211 253 b 417 181 269 206 342 181 b 622 253 492 181 564 206 l 772 104 l 818 149 l 667 297 b 736 500 713 360 736 422 b 667 703 736 578 713 640 l 818 851 l 772 896 l 622 747 b 417 819 564 794 492 819 b 211 747 342 819 269 794 l 61 896 l 15 851 z m 417 235 b 151 500 267 235 151 350 b 417 767 151 650 267 767 b 682 500 567 767 682 650 b 417 235 682 350 567 235 z "},"'":{"ha":833,"x_min":0,"x_max":0,"o":"m 453 438 l 492 692 b 503 797 496 722 503 772 b 417 850 503 818 468 850 b 331 797 365 850 331 818 b 342 692 331 772 338 722 l 381 438 z "},"“":{"ha":833,"x_min":0,"x_max":0,"o":"m 390 850 b 194 660 300 831 194 761 b 296 547 194 601 235 547 b 392 643 351 547 392 588 b 310 728 392 690 356 725 b 390 769 332 750 360 763 z m 660 850 b 464 660 569 831 464 761 b 565 547 464 601 504 547 b 661 643 621 547 661 588 b 579 728 661 690 625 725 b 660 769 601 750 629 763 z "},"«":{"ha":833,"x_min":0,"x_max":0,"o":"m 399 769 l 13 417 l 399 64 l 456 119 l 128 417 l 456 714 z m 689 769 l 303 417 l 689 64 l 746 119 l 418 417 l 746 714 z "},"‹":{"ha":833,"x_min":0,"x_max":0,"o":"m 558 769 l 172 417 l 558 64 l 615 119 l 288 417 l 615 714 z "},"›":{"ha":833,"x_min":0,"x_max":0,"o":"m 218 714 l 546 417 l 218 119 l 275 64 l 661 417 l 275 769 z "},"ﬁ":{"ha":833,"x_min":0,"x_max":0,"o":"m 575 838 b 389 865 515 857 451 865 b 215 675 286 865 215 817 l 215 575 l 53 575 l 53 497 l 215 497 l 215 78 l 54 78 l 54 0 l 401 0 l 401 78 l 301 78 l 301 497 l 422 497 l 422 575 l 301 575 l 301 647 b 397 788 301 765 317 788 b 525 768 440 788 483 782 z m 471 0 l 800 0 l 800 78 l 694 78 l 694 543 b 653 615 694 574 696 615 b 615 594 635 615 626 607 b 560 575 599 576 590 575 l 485 575 l 485 497 l 608 497 l 608 78 l 471 78 z m 743 739 b 654 826 743 789 701 826 b 564 739 606 826 564 789 b 654 653 564 690 606 653 b 743 739 701 653 743 690 z "},"ﬂ":{"ha":833,"x_min":0,"x_max":0,"o":"m 683 842 b 643 911 683 871 683 911 b 606 888 625 911 617 900 b 501 851 579 857 539 851 b 347 865 450 851 400 865 b 189 769 276 865 218 839 b 175 619 171 726 175 667 l 175 575 l 11 575 l 11 497 l 175 497 l 175 78 l 38 78 l 38 0 l 360 0 l 360 78 l 261 78 l 261 497 l 414 497 l 414 575 l 261 575 l 261 619 b 271 746 261 657 258 713 b 346 788 283 781 313 788 b 426 781 372 788 399 785 b 506 774 453 778 479 774 b 597 788 538 774 568 779 l 597 78 l 461 78 l 461 0 l 794 0 l 794 78 l 683 78 z "},"–":{"ha":833,"x_min":0,"x_max":0,"o":"m 625 378 l 625 456 l 208 456 l 208 378 z "},"†":{"ha":833,"x_min":0,"x_max":0,"o":"m 365 833 l 374 604 l 225 613 l 225 521 l 372 529 l 367 432 l 390 0 l 443 0 l 467 432 l 461 529 l 608 521 l 608 613 l 460 604 l 468 833 z "},"‡":{"ha":833,"x_min":0,"x_max":0,"o":"m 225 540 l 375 549 l 375 285 l 225 293 l 225 201 l 375 210 l 365 0 l 468 0 l 458 210 l 608 201 l 608 293 l 458 285 l 458 549 l 608 540 l 608 632 l 458 624 l 468 833 l 365 833 l 375 624 l 225 632 z "},"·":{"ha":833,"x_min":0,"x_max":0,"o":"m 306 500 b 417 389 306 440 357 389 b 528 500 476 389 528 440 b 417 611 528 560 476 611 b 306 500 357 611 306 560 z "},"¶":{"ha":833,"x_min":0,"x_max":0,"o":"m 374 -126 l 460 -126 l 460 769 l 572 769 l 572 -126 l 658 -126 l 658 769 l 708 769 l 708 833 l 389 833 b 125 601 168 833 125 688 b 374 372 125 460 240 368 z "},"•":{"ha":833,"x_min":0,"x_max":0,"o":"m 278 533 b 417 399 278 457 342 399 b 556 533 492 399 556 457 b 417 668 556 610 492 668 b 278 533 342 668 278 610 z "},"‚":{"ha":833,"x_min":0,"x_max":0,"o":"m 333 -136 b 529 54 424 -117 529 -47 b 428 167 529 113 489 167 b 332 71 372 167 332 126 b 414 -14 332 24 368 -11 b 333 -56 392 -36 364 -49 z "},"„":{"ha":833,"x_min":0,"x_max":0,"o":"m 196 -136 b 392 54 286 -117 392 -47 b 290 167 392 113 351 167 b 194 71 235 167 194 126 b 276 -14 194 24 231 -11 b 196 -56 254 -36 226 -49 z m 467 -136 b 663 54 557 -117 663 -47 b 561 167 663 113 622 167 b 465 71 506 167 465 126 b 547 -14 465 24 501 -11 b 467 -56 525 -36 497 -49 z "},"”":{"ha":833,"x_min":0,"x_max":0,"o":"m 196 547 b 392 738 286 567 392 636 b 290 850 392 796 351 850 b 194 754 235 850 194 810 b 276 669 194 707 231 672 b 196 628 254 647 226 635 z m 467 547 b 663 738 557 567 663 636 b 561 850 663 796 622 850 b 465 754 506 850 465 810 b 547 669 465 707 501 672 b 467 628 525 647 497 635 z "},"»":{"ha":833,"x_min":0,"x_max":0,"o":"m 88 714 l 415 417 l 88 119 l 144 64 l 531 417 l 144 769 z m 378 714 l 706 417 l 378 119 l 435 64 l 821 417 l 435 769 z "},"…":{"ha":833,"x_min":0,"x_max":0,"o":"m 74 63 b 156 -17 74 18 111 -17 b 238 63 200 -17 238 18 b 156 142 238 107 199 142 b 74 63 113 142 74 107 z m 335 63 b 417 -17 335 18 372 -17 b 499 63 461 -17 499 18 b 417 142 499 107 460 142 b 335 63 374 142 335 107 z m 596 63 b 678 -17 596 18 633 -17 b 760 63 722 -17 760 18 b 678 142 760 107 721 142 b 596 63 635 142 596 107 z "},"‰":{"ha":833,"x_min":0,"x_max":0,"o":"m 131 850 b 0 671 31 850 0 754 b 131 492 0 588 31 492 b 261 671 231 492 261 588 b 131 850 261 754 231 850 z m 131 811 b 211 671 199 811 211 721 b 131 531 211 621 199 531 b 50 671 63 531 50 621 b 131 811 50 721 63 811 z m 432 879 l 46 -6 l 93 -35 l 479 851 z m 403 303 b 483 163 471 303 483 213 b 403 22 483 113 471 22 b 322 163 335 22 322 113 b 403 303 322 213 335 303 z m 403 342 b 272 163 303 342 272 246 b 403 -17 272 79 303 -17 b 533 163 503 -17 533 79 b 403 342 533 246 503 342 z m 703 303 b 783 163 771 303 783 213 b 703 22 783 113 771 22 b 622 163 635 22 622 113 b 703 303 622 213 635 303 z m 703 342 b 572 163 603 342 572 246 b 703 -17 572 79 603 -17 b 833 163 803 -17 833 79 b 703 342 833 246 803 342 z "},"¿":{"ha":833,"x_min":0,"x_max":0,"o":"m 417 363 l 417 325 b 232 -78 417 131 232 118 b 439 -274 232 -193 333 -274 b 669 -64 571 -274 669 -176 b 614 13 669 -26 660 13 b 568 -44 583 13 568 -18 b 576 -89 568 -60 571 -75 b 439 -196 567 -157 506 -196 b 321 -68 368 -196 321 -136 b 500 314 321 65 500 118 l 500 363 z m 376 513 b 458 433 376 468 414 433 b 540 513 503 433 540 468 b 458 592 540 557 501 592 b 376 513 415 592 376 557 z "},"`":{"ha":833,"x_min":0,"x_max":0,"o":"m 269 917 l 199 832 l 481 646 l 531 707 z "},"´":{"ha":833,"x_min":0,"x_max":0,"o":"m 564 917 l 303 707 l 354 646 l 635 832 z "},"ˆ":{"ha":833,"x_min":0,"x_max":0,"o":"m 417 782 l 613 649 l 664 700 l 417 914 l 169 700 l 221 649 z "},"˜":{"ha":833,"x_min":0,"x_max":0,"o":"m 283 703 b 322 782 282 731 282 782 b 399 749 346 782 379 760 b 513 707 433 729 472 707 b 615 757 563 707 596 726 b 639 869 635 788 643 828 l 550 869 b 511 789 547 843 550 789 b 428 828 490 789 461 808 b 317 865 394 847 357 865 b 218 815 269 865 238 846 b 194 703 199 785 192 744 z "},"¯":{"ha":833,"x_min":0,"x_max":0,"o":"m 597 725 l 597 803 l 236 803 l 236 725 z "},"˘":{"ha":833,"x_min":0,"x_max":0,"o":"m 546 885 b 417 774 557 804 492 774 b 288 885 342 774 276 804 l 207 885 b 417 689 193 756 281 689 b 626 885 553 689 640 756 z "},"˙":{"ha":833,"x_min":0,"x_max":0,"o":"m 333 781 b 417 700 333 735 372 700 b 500 781 461 700 500 735 b 417 861 500 826 461 861 b 333 781 372 861 333 826 z "},"¨":{"ha":833,"x_min":0,"x_max":0,"o":"m 186 781 b 269 700 186 735 225 700 b 353 781 314 700 353 735 b 269 861 353 826 314 861 b 186 781 225 861 186 826 z m 481 781 b 564 700 481 735 519 700 b 647 781 608 700 647 735 b 564 861 647 826 608 861 b 481 781 519 861 481 826 z "},"˚":{"ha":833,"x_min":0,"x_max":0,"o":"m 289 781 b 417 657 289 711 347 657 b 544 781 486 657 544 711 b 417 904 544 851 486 904 b 289 781 349 904 289 850 z m 371 781 b 417 836 371 807 388 836 b 463 781 446 836 463 807 b 417 725 463 754 446 725 b 371 781 388 725 371 754 z "},"¸":{"ha":833,"x_min":0,"x_max":0,"o":"m 474 42 l 389 42 l 349 -119 l 433 -111 b 514 -153 461 -111 514 -115 b 422 -208 514 -196 457 -208 b 268 -165 368 -208 317 -187 l 268 -247 b 426 -286 315 -274 372 -286 b 604 -153 508 -286 604 -249 b 453 -33 604 -68 528 -32 z "},"˝":{"ha":833,"x_min":0,"x_max":0,"o":"m 654 917 l 393 707 l 443 646 l 725 832 z m 371 917 l 110 707 l 160 646 l 442 832 z "},"˛":{"ha":833,"x_min":0,"x_max":0,"o":"m 606 -157 b 465 -194 560 -176 514 -194 b 372 -131 415 -194 372 -183 b 546 29 372 -62 501 -8 l 408 29 b 282 -132 342 0 282 -54 b 461 -272 282 -235 371 -272 b 606 -240 515 -272 554 -260 z "},"ˇ":{"ha":833,"x_min":0,"x_max":0,"o":"m 417 779 l 221 914 l 169 861 l 417 647 l 664 861 l 613 914 z "},"—":{"ha":833,"x_min":0,"x_max":0,"o":"m 833 378 l 833 456 l 0 456 l 0 378 z "},"Æ":{"ha":833,"x_min":0,"x_max":0,"o":"m 793 833 l 329 833 l 67 78 l 24 78 l 24 0 l 267 0 l 267 78 l 153 78 l 215 258 l 417 258 l 417 78 l 353 78 l 353 0 l 793 0 l 793 265 l 707 265 l 707 188 b 590 78 707 82 692 78 l 503 78 l 503 414 l 585 414 l 585 325 l 671 325 l 671 585 l 585 585 l 585 492 l 503 492 l 503 756 l 597 756 b 707 626 689 756 707 753 l 707 601 l 793 601 z m 417 336 l 242 336 l 386 756 l 417 756 z "},"ª":{"ha":833,"x_min":0,"x_max":0,"o":"m 633 364 l 217 364 l 217 306 l 633 306 z m 493 707 b 208 585 410 701 208 706 b 343 486 208 510 281 486 b 493 518 394 486 446 500 l 493 496 l 636 496 l 636 549 l 563 549 l 563 738 b 536 826 563 768 564 804 b 431 850 510 846 464 850 b 254 801 372 850 304 829 l 254 733 l 324 733 l 324 768 b 442 797 360 789 400 797 b 493 725 503 797 493 771 z m 493 578 b 342 539 446 558 396 539 b 278 583 311 539 278 547 b 336 638 278 618 307 629 b 493 656 388 653 442 656 z "},"Ł":{"ha":833,"x_min":0,"x_max":0,"o":"m 297 538 l 297 756 l 454 756 l 454 833 l 61 833 l 61 756 l 211 756 l 211 490 l 43 399 l 43 308 l 211 400 l 211 78 l 63 78 l 63 0 l 751 0 l 751 292 l 665 292 l 665 253 b 517 78 665 104 669 78 l 297 78 l 297 447 l 472 539 l 472 629 z "},"Ø":{"ha":833,"x_min":0,"x_max":0,"o":"m 231 47 b 417 -17 285 4 349 -17 b 750 417 647 -17 750 206 b 661 726 750 536 729 628 l 719 818 l 650 863 l 601 786 b 417 850 549 829 485 850 b 83 417 186 850 83 628 b 172 107 83 314 104 206 l 110 10 l 179 -35 z m 611 647 b 660 417 643 583 660 496 b 417 61 660 258 596 61 b 275 118 363 61 314 81 z m 222 186 b 174 417 186 257 174 338 b 417 772 175 575 238 772 b 558 717 471 772 518 753 z "},"Œ":{"ha":833,"x_min":0,"x_max":0,"o":"m 436 833 b 274 850 393 842 344 850 b 40 408 183 850 40 715 b 274 -17 40 93 183 -17 b 365 -11 310 -17 339 -14 b 436 0 392 -8 415 -4 l 774 0 l 774 265 l 688 265 l 688 188 b 569 78 688 78 671 78 l 482 78 l 482 417 l 571 417 l 571 325 l 657 325 l 657 585 l 571 585 l 571 494 l 482 494 l 482 756 l 581 756 b 688 626 667 756 688 750 l 688 601 l 774 601 l 774 833 z m 396 72 b 289 61 372 67 343 61 b 131 417 224 61 131 165 b 289 772 131 638 207 772 b 396 763 343 772 374 768 z "},"º":{"ha":833,"x_min":0,"x_max":0,"o":"m 208 364 l 208 306 l 625 306 l 625 364 z m 417 486 b 617 668 521 486 617 558 b 417 850 617 779 521 850 b 217 668 313 850 217 779 b 417 486 217 558 313 486 z m 417 539 b 286 668 343 539 286 594 b 417 797 286 742 343 797 b 547 668 490 797 547 742 b 417 539 547 594 490 539 z "},"æ":{"ha":833,"x_min":0,"x_max":0,"o":"m 482 363 b 578 514 482 460 493 514 b 713 332 678 514 713 424 l 482 332 z m 396 254 l 396 118 b 256 61 357 82 310 61 b 136 157 196 61 136 92 b 319 254 136 228 189 254 z m 796 326 b 583 592 807 479 718 592 b 439 531 528 592 474 575 b 306 592 406 572 361 592 b 90 526 236 592 153 556 l 90 390 l 176 390 l 176 475 b 304 514 214 494 263 514 b 396 379 375 514 396 469 l 396 332 l 306 332 b 46 153 94 332 46 236 b 254 -17 46 29 169 -17 b 433 44 319 -17 381 4 b 576 -17 467 3 525 -17 b 815 82 668 -17 747 26 l 768 146 b 588 61 717 101 658 61 b 482 200 493 61 482 101 l 482 254 l 790 254 z "},"ı":{"ha":833,"x_min":0,"x_max":0,"o":"m 142 0 l 749 0 l 749 78 l 504 78 l 504 543 b 463 615 504 574 506 615 b 425 594 444 615 436 607 b 269 556 394 558 313 553 l 143 564 l 157 488 l 275 481 b 418 494 324 478 371 486 l 418 78 l 142 78 z "},"ł":{"ha":833,"x_min":0,"x_max":0,"o":"m 471 839 b 429 911 471 869 472 911 b 392 890 411 911 403 903 b 236 851 361 854 279 851 l 147 850 l 161 774 l 242 776 b 385 790 290 778 338 782 l 385 490 l 192 385 l 192 294 l 385 400 l 385 78 l 125 78 l 125 0 l 703 0 l 703 78 l 471 78 l 471 447 l 664 554 l 664 644 l 471 538 z "},"ø":{"ha":833,"x_min":0,"x_max":0,"o":"m 249 33 b 417 -17 301 3 353 -17 b 719 288 589 -17 719 117 b 639 499 719 375 692 432 l 704 576 l 642 628 l 576 549 b 417 592 533 574 474 592 b 114 288 244 592 113 460 b 189 85 114 206 140 147 l 125 7 l 185 -43 z m 583 433 b 629 288 614 388 629 344 b 417 61 629 165 544 61 b 300 96 382 61 338 75 z m 244 151 b 204 288 217 194 204 236 b 417 514 204 411 289 514 b 524 486 454 514 490 504 z "},"œ":{"ha":833,"x_min":0,"x_max":0,"o":"m 426 539 b 294 592 394 575 342 592 b 39 289 129 592 39 440 b 269 -17 39 47 214 -17 b 426 33 325 -17 376 10 b 554 -17 471 -1 496 -17 b 794 82 647 -17 725 25 l 747 146 b 567 61 696 101 638 61 b 463 207 465 61 463 108 l 463 254 l 769 254 l 775 326 b 563 592 786 479 697 592 b 426 539 503 592 471 578 z m 376 133 b 293 61 376 78 338 61 b 129 290 169 61 129 183 b 286 514 129 390 171 514 b 376 429 358 514 376 483 z m 463 332 l 463 374 b 557 514 463 461 474 514 b 693 332 657 514 693 424 z "},"ß":{"ha":833,"x_min":0,"x_max":0,"o":"m 383 406 b 633 222 513 404 633 378 b 500 61 633 142 588 61 b 401 174 426 61 401 108 l 401 201 l 319 201 l 319 171 b 497 -17 319 58 382 -17 b 724 229 638 -17 724 94 b 574 453 724 326 669 421 l 574 454 b 672 632 644 503 672 542 b 426 850 672 772 557 850 b 190 561 301 850 190 796 l 190 78 l 81 78 l 81 0 l 276 0 l 276 506 b 426 772 276 625 264 772 b 582 622 522 772 582 719 b 383 488 582 500 481 489 z "},"¹":{"ha":833,"x_min":0,"x_max":0,"o":"m 454 803 b 425 850 454 825 456 850 b 396 833 410 850 406 843 b 314 819 385 821 332 819 l 288 819 l 296 772 l 325 771 b 394 778 347 769 371 772 l 394 446 l 299 446 l 299 396 l 542 396 l 542 446 l 454 446 z "},"¬":{"ha":833,"x_min":0,"x_max":0,"o":"m 701 224 l 799 224 l 799 628 l 35 628 l 35 536 l 701 536 z "},"µ":{"ha":833,"x_min":0,"x_max":0,"o":"m 575 265 b 417 61 575 135 510 61 b 258 251 324 61 258 121 l 258 575 l 172 575 l 172 -274 l 258 -274 l 258 53 l 260 53 b 419 -17 299 7 358 -17 b 574 57 479 -17 538 11 l 575 57 l 575 0 l 661 0 l 661 575 l 575 575 z "},"™":{"ha":833,"x_min":0,"x_max":0,"o":"m 303 449 l 303 499 l 232 499 l 232 783 l 271 783 b 310 743 306 783 310 776 l 310 694 l 360 694 l 360 833 l 46 833 l 46 694 l 96 694 l 96 743 b 133 783 96 776 100 783 l 172 783 l 172 499 l 104 499 l 104 449 z m 747 783 l 788 783 l 788 833 l 681 833 l 601 664 l 524 833 l 415 833 l 415 783 l 456 783 l 456 499 l 415 499 l 415 449 l 563 449 l 563 499 l 515 499 l 515 746 l 517 746 l 601 563 l 685 746 l 688 746 l 688 499 l 643 499 l 643 449 l 788 449 l 788 499 l 747 499 z "},"Ð":{"ha":833,"x_min":0,"x_max":0,"o":"m 86 403 l 200 403 l 200 78 l 86 67 l 99 -11 l 242 6 b 428 0 303 13 365 0 b 767 411 614 0 767 106 b 396 833 767 703 597 833 b 225 817 332 833 279 817 b 93 833 181 817 138 828 l 90 768 l 200 744 l 200 481 l 86 481 z m 286 744 l 386 756 b 676 394 508 769 676 672 b 425 78 676 161 575 78 l 286 78 l 286 403 l 419 403 l 419 481 l 286 481 z "},"½":{"ha":833,"x_min":0,"x_max":0,"o":"m 590 879 l 204 -6 l 260 -39 l 646 847 z m 743 99 l 715 50 l 567 50 l 578 61 l 704 196 b 767 338 740 235 767 282 b 631 454 767 410 697 454 b 497 347 572 454 497 414 b 524 318 497 331 506 318 b 569 376 556 318 569 347 b 631 404 589 397 603 404 b 707 335 669 404 707 376 b 506 64 707 251 563 125 l 488 44 l 488 0 l 756 0 l 797 86 z m 232 803 b 203 850 232 825 233 850 b 174 833 188 850 183 843 b 92 819 163 821 110 819 l 65 819 l 74 772 l 103 771 b 172 778 125 769 149 772 l 172 446 l 76 446 l 76 396 l 319 396 l 319 446 l 232 446 z "},"±":{"ha":833,"x_min":0,"x_max":0,"o":"m 799 617 l 465 617 l 465 946 l 368 946 l 368 617 l 35 617 l 35 525 l 368 525 l 368 196 l 465 196 l 465 525 l 799 525 z m 799 146 l 35 146 l 35 54 l 799 54 z "},"Þ":{"ha":833,"x_min":0,"x_max":0,"o":"m 215 78 l 100 78 l 100 0 l 415 0 l 415 78 l 301 78 l 301 281 l 419 281 b 726 469 622 281 726 356 b 482 625 726 581 614 625 l 301 625 l 301 756 l 415 756 l 415 833 l 100 833 l 100 756 l 215 756 z m 301 561 l 465 561 b 636 467 563 561 636 538 b 417 344 636 388 565 344 l 301 344 z "},"¼":{"ha":833,"x_min":0,"x_max":0,"o":"m 603 879 l 217 -6 l 272 -39 l 658 847 z m 689 314 l 689 164 l 532 164 b 679 464 592 257 650 356 l 619 481 b 468 157 590 364 531 258 l 468 114 l 689 114 l 689 50 l 614 50 l 614 0 l 813 0 l 813 50 l 749 50 l 749 114 l 813 114 l 813 164 l 749 164 l 749 314 z m 232 803 b 203 850 232 825 233 850 b 174 833 188 850 183 843 b 92 819 163 821 110 819 l 65 819 l 74 772 l 103 771 b 172 778 125 769 149 772 l 172 446 l 76 446 l 76 396 l 319 396 l 319 446 l 232 446 z "},"÷":{"ha":833,"x_min":0,"x_max":0,"o":"m 799 546 l 35 546 l 35 454 l 799 454 z m 493 292 b 417 368 493 333 458 368 b 340 292 375 368 340 333 b 417 215 340 250 375 215 b 493 292 458 215 493 250 z m 493 708 b 417 785 493 750 458 785 b 340 708 375 785 340 750 b 417 632 340 667 375 632 b 493 708 458 632 493 667 z "},"¦":{"ha":833,"x_min":0,"x_max":0,"o":"m 371 1100 l 371 600 l 463 600 l 463 1100 z m 371 100 l 371 -400 l 463 -400 l 463 100 z "},"°":{"ha":833,"x_min":0,"x_max":0,"o":"m 121 772 b 417 483 121 610 257 483 b 713 772 578 483 713 610 b 417 1063 713 936 578 1063 b 121 772 257 1063 121 936 z m 232 772 b 417 957 232 875 315 957 b 601 772 518 957 601 875 b 417 589 601 671 518 589 b 232 772 315 589 232 671 z "},"þ":{"ha":833,"x_min":0,"x_max":0,"o":"m 283 422 b 447 514 318 474 385 514 b 628 290 567 514 628 397 b 415 61 628 168 543 61 b 283 96 368 61 325 72 z m 283 781 b 243 850 283 811 283 850 b 206 826 225 850 217 839 b 83 789 174 797 128 792 l 96 718 l 197 732 l 197 -196 l 114 -196 l 114 -274 l 417 -274 l 417 -196 l 283 -196 l 283 10 b 436 -17 333 -4 383 -17 b 718 290 517 -17 718 57 b 449 592 718 449 618 592 b 283 531 379 592 339 567 z "},"¾":{"ha":833,"x_min":0,"x_max":0,"o":"m 592 879 l 206 -6 l 261 -39 l 647 847 z m 689 314 l 689 164 l 532 164 b 679 464 592 257 650 356 l 619 481 b 468 157 590 364 531 258 l 468 114 l 689 114 l 689 50 l 614 50 l 614 0 l 813 0 l 813 50 l 749 50 l 749 114 l 813 114 l 813 164 l 749 164 l 749 314 z m 181 614 b 272 525 236 614 272 582 b 167 438 272 464 222 438 b 46 471 124 438 82 449 l 22 425 b 167 388 64 400 117 388 b 332 528 251 388 332 433 b 265 640 332 583 308 610 b 310 726 293 665 310 686 b 176 850 310 803 251 850 b 50 758 131 850 50 814 b 78 731 50 743 63 731 b 129 785 108 731 126 758 b 179 800 140 799 164 800 b 250 724 224 800 250 764 b 169 661 250 675 211 661 b 135 665 158 661 147 663 l 135 610 z "},"²":{"ha":833,"x_min":0,"x_max":0,"o":"m 508 494 l 481 446 l 344 446 l 356 457 l 482 592 b 544 735 515 635 544 679 b 408 850 544 807 475 850 b 275 744 350 850 275 811 b 301 715 275 728 283 715 b 347 776 333 715 347 744 b 408 800 367 794 381 800 b 485 731 447 800 485 772 b 283 460 485 649 343 519 l 265 442 l 265 396 l 521 396 l 563 482 z "},"®":{"ha":833,"x_min":0,"x_max":0,"o":"m 417 -17 b 792 417 581 -17 792 92 b 417 850 792 742 581 850 b 42 417 253 850 42 742 b 417 -17 42 92 253 -17 z m 417 61 b 132 417 292 61 132 150 b 417 772 132 683 292 772 b 701 417 542 772 701 683 b 417 61 701 150 542 61 z m 597 256 l 551 256 l 450 407 b 543 518 501 422 543 454 b 404 629 543 600 474 629 l 235 629 l 235 579 l 281 579 l 281 256 l 235 256 l 235 206 l 386 206 l 386 256 l 340 256 l 340 390 l 394 390 l 517 206 l 597 206 z m 340 579 l 400 579 b 483 513 449 579 483 560 b 371 440 483 472 451 440 l 340 440 z "},"−":{"ha":833,"x_min":0,"x_max":0,"o":"m 799 546 l 35 546 l 35 454 l 799 454 z "},"ð":{"ha":833,"x_min":0,"x_max":0,"o":"m 204 288 b 417 514 204 411 289 514 b 629 288 544 514 629 411 b 417 61 629 165 544 61 b 204 288 289 61 204 165 z m 446 832 b 283 911 390 872 333 900 l 269 881 b 390 790 306 857 349 828 l 269 700 l 306 651 l 433 747 b 564 556 483 696 529 633 b 417 592 519 579 465 592 b 114 288 244 592 114 460 b 417 -17 114 117 244 -17 b 719 288 589 -17 719 117 b 633 618 719 414 686 525 b 494 792 594 686 546 744 l 589 863 l 553 911 z "},"×":{"ha":833,"x_min":0,"x_max":0,"o":"m 799 183 l 482 500 l 799 817 l 732 883 l 417 567 l 101 883 l 35 817 l 351 500 l 35 183 l 101 117 l 417 433 l 732 117 z "},"³":{"ha":833,"x_min":0,"x_max":0,"o":"m 403 614 b 494 525 458 614 494 582 b 389 438 494 464 444 438 b 268 471 346 438 304 449 l 244 425 b 389 388 286 400 339 388 b 554 528 474 388 554 433 b 488 640 554 583 531 610 b 532 726 515 665 532 686 b 399 850 532 803 474 850 b 272 758 353 850 272 814 b 300 731 272 743 285 731 b 351 785 331 731 349 758 b 401 800 363 799 386 800 b 472 724 446 800 472 764 b 392 661 472 675 433 661 b 357 665 381 661 369 663 l 357 610 z "},"©":{"ha":833,"x_min":0,"x_max":0,"o":"m 417 -17 b 792 417 581 -17 792 92 b 417 850 792 742 581 850 b 42 417 253 850 42 742 b 417 -17 42 92 253 -17 z m 417 61 b 132 417 292 61 132 150 b 417 772 132 683 292 772 b 701 417 542 772 701 683 b 417 61 701 150 542 61 z m 517 350 b 419 239 518 282 482 239 b 310 418 339 239 310 338 b 421 596 310 500 336 596 b 508 490 486 596 506 557 l 557 497 l 553 551 b 565 626 551 578 556 603 l 518 647 l 508 622 b 418 646 483 633 453 646 b 238 421 332 646 238 585 b 417 189 238 253 332 189 b 568 257 476 189 524 219 l 568 350 z "},"Á":{"ha":833,"x_min":0,"x_max":0,"o":"m 411 911 l 96 78 l 26 78 l 26 0 l 304 0 l 304 78 l 183 78 l 249 257 l 579 257 l 646 78 l 526 78 l 526 0 l 807 0 l 807 78 l 738 78 z m 551 335 l 275 335 l 411 717 z m 547 1175 l 286 965 l 338 904 l 618 1090 z "},"Â":{"ha":833,"x_min":0,"x_max":0,"o":"m 411 911 l 96 78 l 26 78 l 26 0 l 304 0 l 304 78 l 183 78 l 249 257 l 579 257 l 646 78 l 526 78 l 526 0 l 807 0 l 807 78 l 738 78 z m 551 335 l 275 335 l 411 717 z m 417 1040 l 613 907 l 664 958 l 417 1172 l 169 958 l 221 907 z "},"Ä":{"ha":833,"x_min":0,"x_max":0,"o":"m 411 911 l 96 78 l 26 78 l 26 0 l 304 0 l 304 78 l 183 78 l 249 257 l 579 257 l 646 78 l 526 78 l 526 0 l 807 0 l 807 78 l 738 78 z m 551 335 l 275 335 l 411 717 z m 186 1039 b 269 958 186 993 225 958 b 353 1039 314 958 353 993 b 269 1119 353 1085 314 1119 b 186 1039 225 1119 186 1085 z m 481 1039 b 564 958 481 993 519 958 b 647 1039 608 958 647 993 b 564 1119 647 1085 608 1119 b 481 1039 519 1119 481 1085 z "},"À":{"ha":833,"x_min":0,"x_max":0,"o":"m 411 911 l 96 78 l 26 78 l 26 0 l 304 0 l 304 78 l 183 78 l 249 257 l 579 257 l 646 78 l 526 78 l 526 0 l 807 0 l 807 78 l 738 78 z m 551 335 l 275 335 l 411 717 z m 269 1175 l 199 1090 l 481 904 l 531 965 z "},"Å":{"ha":833,"x_min":0,"x_max":0,"o":"m 411 911 l 96 78 l 26 78 l 26 0 l 304 0 l 304 78 l 183 78 l 249 257 l 579 257 l 646 78 l 526 78 l 526 0 l 807 0 l 807 78 l 738 78 z m 551 335 l 275 335 l 411 717 z m 289 1039 b 417 915 289 969 347 915 b 544 1039 486 915 544 969 b 417 1163 544 1110 486 1163 b 289 1039 349 1163 289 1108 z m 371 1039 b 417 1094 371 1065 388 1094 b 463 1039 446 1094 463 1065 b 417 983 463 1013 446 983 b 371 1039 388 983 371 1013 z "},"Ã":{"ha":833,"x_min":0,"x_max":0,"o":"m 411 911 l 96 78 l 26 78 l 26 0 l 304 0 l 304 78 l 183 78 l 249 257 l 579 257 l 646 78 l 526 78 l 526 0 l 807 0 l 807 78 l 738 78 z m 551 335 l 275 335 l 411 717 z m 283 961 b 322 1040 282 989 282 1040 b 399 1007 346 1040 379 1018 b 513 965 433 988 472 965 b 615 1015 563 965 596 985 b 639 1128 635 1046 643 1086 l 550 1128 b 511 1047 547 1101 550 1047 b 428 1086 490 1047 461 1067 b 317 1124 394 1106 357 1124 b 218 1074 269 1124 238 1104 b 194 961 199 1043 192 1003 z "},"Ç":{"ha":833,"x_min":0,"x_max":0,"o":"m 644 803 b 454 850 588 832 519 850 b 110 425 301 850 110 743 b 376 -7 110 151 244 26 l 349 -119 l 433 -111 b 514 -153 461 -111 514 -115 b 422 -208 514 -196 457 -208 b 268 -165 368 -208 317 -187 l 268 -247 b 426 -286 315 -274 372 -286 b 604 -153 508 -286 604 -249 b 453 -33 604 -68 528 -32 l 457 -17 b 736 108 564 -14 660 35 l 736 286 l 650 286 b 456 61 650 156 597 61 b 200 418 269 61 200 261 b 458 772 200 579 265 772 b 640 560 603 772 635 688 l 722 574 l 715 679 b 740 825 713 729 721 779 l 663 850 z "},"É":{"ha":833,"x_min":0,"x_max":0,"o":"m 743 0 l 743 271 l 657 271 l 657 244 b 542 78 657 90 647 78 l 282 78 l 282 415 l 472 415 l 472 285 l 558 285 l 558 610 l 472 610 l 472 493 l 282 493 l 282 756 l 517 756 b 631 628 626 756 631 743 l 631 592 l 717 592 l 717 833 l 57 833 l 57 756 l 196 756 l 196 78 l 57 78 l 57 0 z m 564 1175 l 303 965 l 354 904 l 635 1090 z "},"Ê":{"ha":833,"x_min":0,"x_max":0,"o":"m 743 0 l 743 271 l 657 271 l 657 244 b 542 78 657 90 647 78 l 282 78 l 282 415 l 472 415 l 472 285 l 558 285 l 558 610 l 472 610 l 472 493 l 282 493 l 282 756 l 517 756 b 631 628 626 756 631 743 l 631 592 l 717 592 l 717 833 l 57 833 l 57 756 l 196 756 l 196 78 l 57 78 l 57 0 z m 417 1040 l 613 907 l 664 958 l 417 1172 l 169 958 l 221 907 z "},"Ë":{"ha":833,"x_min":0,"x_max":0,"o":"m 743 0 l 743 271 l 657 271 l 657 244 b 542 78 657 90 647 78 l 282 78 l 282 415 l 472 415 l 472 285 l 558 285 l 558 610 l 472 610 l 472 493 l 282 493 l 282 756 l 517 756 b 631 628 626 756 631 743 l 631 592 l 717 592 l 717 833 l 57 833 l 57 756 l 196 756 l 196 78 l 57 78 l 57 0 z m 186 1039 b 269 958 186 993 225 958 b 353 1039 314 958 353 993 b 269 1119 353 1085 314 1119 b 186 1039 225 1119 186 1085 z m 481 1039 b 564 958 481 993 519 958 b 647 1039 608 958 647 993 b 564 1119 647 1085 608 1119 b 481 1039 519 1119 481 1085 z "},"È":{"ha":833,"x_min":0,"x_max":0,"o":"m 743 0 l 743 271 l 657 271 l 657 244 b 542 78 657 90 647 78 l 282 78 l 282 415 l 472 415 l 472 285 l 558 285 l 558 610 l 472 610 l 472 493 l 282 493 l 282 756 l 517 756 b 631 628 626 756 631 743 l 631 592 l 717 592 l 717 833 l 57 833 l 57 756 l 196 756 l 196 78 l 57 78 l 57 0 z m 269 1175 l 199 1090 l 481 904 l 531 965 z "},"Í":{"ha":833,"x_min":0,"x_max":0,"o":"m 151 833 l 151 756 l 374 756 l 374 78 l 151 78 l 151 0 l 682 0 l 682 78 l 460 78 l 460 756 l 682 756 l 682 833 z m 564 1175 l 303 965 l 354 904 l 635 1090 z "},"Î":{"ha":833,"x_min":0,"x_max":0,"o":"m 151 833 l 151 756 l 374 756 l 374 78 l 151 78 l 151 0 l 682 0 l 682 78 l 460 78 l 460 756 l 682 756 l 682 833 z m 417 1040 l 613 907 l 664 958 l 417 1172 l 169 958 l 221 907 z "},"Ï":{"ha":833,"x_min":0,"x_max":0,"o":"m 151 833 l 151 756 l 374 756 l 374 78 l 151 78 l 151 0 l 682 0 l 682 78 l 460 78 l 460 756 l 682 756 l 682 833 z m 186 1039 b 269 958 186 993 225 958 b 353 1039 314 958 353 993 b 269 1119 353 1085 314 1119 b 186 1039 225 1119 186 1085 z m 481 1039 b 564 958 481 993 519 958 b 647 1039 608 958 647 993 b 564 1119 647 1085 608 1119 b 481 1039 519 1119 481 1085 z "},"Ì":{"ha":833,"x_min":0,"x_max":0,"o":"m 151 833 l 151 756 l 374 756 l 374 78 l 151 78 l 151 0 l 682 0 l 682 78 l 460 78 l 460 756 l 682 756 l 682 833 z m 269 1175 l 199 1090 l 481 904 l 531 965 z "},"Ñ":{"ha":833,"x_min":0,"x_max":0,"o":"m 708 756 l 796 756 l 796 833 l 492 833 l 492 756 l 622 756 l 622 160 l 619 160 l 235 833 l 36 833 l 36 756 l 139 756 l 139 78 l 36 78 l 36 0 l 353 0 l 353 78 l 225 78 l 225 678 l 228 678 l 619 0 l 708 0 z m 283 961 b 322 1040 282 989 282 1040 b 399 1007 346 1040 379 1018 b 513 965 433 988 472 965 b 615 1015 563 965 596 985 b 639 1128 635 1046 643 1086 l 550 1128 b 511 1047 547 1101 550 1047 b 428 1086 490 1047 461 1067 b 317 1124 394 1106 357 1124 b 218 1074 269 1124 238 1104 b 194 961 199 1043 192 1003 z "},"Ó":{"ha":833,"x_min":0,"x_max":0,"o":"m 417 -17 b 750 417 647 -17 750 206 b 417 850 750 628 647 850 b 83 417 186 850 83 628 b 417 -17 83 206 186 -17 z m 417 61 b 174 417 238 61 174 258 b 417 772 174 575 238 772 b 660 417 596 772 660 575 b 417 61 660 258 596 61 z m 564 1175 l 303 965 l 354 904 l 635 1090 z "},"Ô":{"ha":833,"x_min":0,"x_max":0,"o":"m 417 -17 b 750 417 647 -17 750 206 b 417 850 750 628 647 850 b 83 417 186 850 83 628 b 417 -17 83 206 186 -17 z m 417 61 b 174 417 238 61 174 258 b 417 772 174 575 238 772 b 660 417 596 772 660 575 b 417 61 660 258 596 61 z m 417 1040 l 613 907 l 664 958 l 417 1172 l 169 958 l 221 907 z "},"Ö":{"ha":833,"x_min":0,"x_max":0,"o":"m 417 -17 b 750 417 647 -17 750 206 b 417 850 750 628 647 850 b 83 417 186 850 83 628 b 417 -17 83 206 186 -17 z m 417 61 b 174 417 238 61 174 258 b 417 772 174 575 238 772 b 660 417 596 772 660 575 b 417 61 660 258 596 61 z m 186 1039 b 269 958 186 993 225 958 b 353 1039 314 958 353 993 b 269 1119 353 1085 314 1119 b 186 1039 225 1119 186 1085 z m 481 1039 b 564 958 481 993 519 958 b 647 1039 608 958 647 993 b 564 1119 647 1085 608 1119 b 481 1039 519 1119 481 1085 z "},"Ò":{"ha":833,"x_min":0,"x_max":0,"o":"m 417 -17 b 750 417 647 -17 750 206 b 417 850 750 628 647 850 b 83 417 186 850 83 628 b 417 -17 83 206 186 -17 z m 417 61 b 174 417 238 61 174 258 b 417 772 174 575 238 772 b 660 417 596 772 660 575 b 417 61 660 258 596 61 z m 269 1175 l 199 1090 l 481 904 l 531 965 z "},"Õ":{"ha":833,"x_min":0,"x_max":0,"o":"m 417 -17 b 750 417 647 -17 750 206 b 417 850 750 628 647 850 b 83 417 186 850 83 628 b 417 -17 83 206 186 -17 z m 417 61 b 174 417 238 61 174 258 b 417 772 174 575 238 772 b 660 417 596 772 660 575 b 417 61 660 258 596 61 z m 283 961 b 322 1040 282 989 282 1040 b 399 1007 346 1040 379 1018 b 513 965 433 988 472 965 b 615 1015 563 965 596 985 b 639 1128 635 1046 643 1086 l 550 1128 b 511 1047 547 1101 550 1047 b 428 1086 490 1047 461 1067 b 317 1124 394 1106 357 1124 b 218 1074 269 1124 238 1104 b 194 961 199 1043 192 1003 z "},"Š":{"ha":833,"x_min":0,"x_max":0,"o":"m 697 218 b 249 631 697 529 249 407 b 432 772 249 736 356 772 b 579 708 494 772 553 757 b 599 579 597 674 596 618 l 683 592 b 671 714 675 632 667 672 l 683 853 l 600 868 l 592 814 b 435 850 547 838 485 850 b 158 625 300 850 158 775 b 607 210 158 321 607 457 b 426 61 607 104 508 61 b 229 210 297 61 242 111 l 221 276 l 138 264 b 151 140 146 224 156 182 l 138 -7 l 221 -18 l 225 33 b 419 -17 292 -1 343 -17 b 697 218 576 -17 697 78 z m 417 1038 l 221 1172 l 169 1119 l 417 906 l 664 1119 l 613 1172 z "},"Ú":{"ha":833,"x_min":0,"x_max":0,"o":"m 490 833 l 490 756 l 593 756 l 593 256 b 417 61 593 106 531 61 b 240 256 303 61 240 106 l 240 756 l 343 756 l 343 833 l 61 833 l 61 756 l 154 756 l 154 243 b 417 -17 154 63 243 -17 b 679 243 590 -17 679 63 l 679 756 l 772 756 l 772 833 z m 564 1175 l 303 965 l 354 904 l 635 1090 z "},"Û":{"ha":833,"x_min":0,"x_max":0,"o":"m 490 833 l 490 756 l 593 756 l 593 256 b 417 61 593 106 531 61 b 240 256 303 61 240 106 l 240 756 l 343 756 l 343 833 l 61 833 l 61 756 l 154 756 l 154 243 b 417 -17 154 63 243 -17 b 679 243 590 -17 679 63 l 679 756 l 772 756 l 772 833 z m 417 1040 l 613 907 l 664 958 l 417 1172 l 169 958 l 221 907 z "},"Ü":{"ha":833,"x_min":0,"x_max":0,"o":"m 490 833 l 490 756 l 593 756 l 593 256 b 417 61 593 106 531 61 b 240 256 303 61 240 106 l 240 756 l 343 756 l 343 833 l 61 833 l 61 756 l 154 756 l 154 243 b 417 -17 154 63 243 -17 b 679 243 590 -17 679 63 l 679 756 l 772 756 l 772 833 z m 186 1039 b 269 958 186 993 225 958 b 353 1039 314 958 353 993 b 269 1119 353 1085 314 1119 b 186 1039 225 1119 186 1085 z m 481 1039 b 564 958 481 993 519 958 b 647 1039 608 958 647 993 b 564 1119 647 1085 608 1119 b 481 1039 519 1119 481 1085 z "},"Ù":{"ha":833,"x_min":0,"x_max":0,"o":"m 490 833 l 490 756 l 593 756 l 593 256 b 417 61 593 106 531 61 b 240 256 303 61 240 106 l 240 756 l 343 756 l 343 833 l 61 833 l 61 756 l 154 756 l 154 243 b 417 -17 154 63 243 -17 b 679 243 590 -17 679 63 l 679 756 l 772 756 l 772 833 z m 269 1175 l 199 1090 l 481 904 l 531 965 z "},"Ý":{"ha":833,"x_min":0,"x_max":0,"o":"m 43 833 l 43 756 l 129 756 l 374 361 l 374 78 l 192 78 l 192 0 l 642 0 l 642 78 l 460 78 l 460 361 l 704 756 l 790 756 l 790 833 l 496 833 l 496 756 l 610 756 l 417 442 l 224 756 l 338 756 l 338 833 z m 564 1175 l 303 965 l 354 904 l 635 1090 z "},"Ÿ":{"ha":833,"x_min":0,"x_max":0,"o":"m 43 833 l 43 756 l 129 756 l 374 361 l 374 78 l 192 78 l 192 0 l 642 0 l 642 78 l 460 78 l 460 361 l 704 756 l 790 756 l 790 833 l 496 833 l 496 756 l 610 756 l 417 442 l 224 756 l 338 756 l 338 833 z m 186 1039 b 269 958 186 993 225 958 b 353 1039 314 958 353 993 b 269 1119 353 1085 314 1119 b 186 1039 225 1119 186 1085 z m 481 1039 b 564 958 481 993 519 958 b 647 1039 608 958 647 993 b 564 1119 647 1085 608 1119 b 481 1039 519 1119 481 1085 z "},"Ž":{"ha":833,"x_min":0,"x_max":0,"o":"m 124 833 l 124 563 l 210 563 l 210 600 b 324 756 210 740 221 756 l 578 756 l 106 67 l 106 0 l 729 0 l 729 271 l 643 271 l 643 233 b 529 78 643 90 632 78 l 211 78 l 682 767 l 682 833 z m 417 1038 l 221 1172 l 169 1119 l 417 906 l 664 1119 l 613 1172 z "},"á":{"ha":833,"x_min":0,"x_max":0,"o":"m 549 0 l 750 0 l 750 78 l 635 78 l 635 418 b 443 592 635 554 585 592 b 172 511 353 592 253 560 l 172 378 l 258 378 l 258 460 b 456 514 317 499 386 514 b 549 383 561 514 549 463 l 549 347 b 285 319 456 344 371 340 b 101 143 189 297 101 257 b 296 -17 101 31 194 -17 b 549 42 385 -17 465 7 z m 549 129 b 300 61 471 93 386 61 b 192 143 244 61 192 78 b 308 246 192 213 251 232 b 549 274 383 264 469 271 z m 564 917 l 303 707 l 354 646 l 635 832 z "},"â":{"ha":833,"x_min":0,"x_max":0,"o":"m 549 0 l 750 0 l 750 78 l 635 78 l 635 418 b 443 592 635 554 585 592 b 172 511 353 592 253 560 l 172 378 l 258 378 l 258 460 b 456 514 317 499 386 514 b 549 383 561 514 549 463 l 549 347 b 285 319 456 344 371 340 b 101 143 189 297 101 257 b 296 -17 101 31 194 -17 b 549 42 385 -17 465 7 z m 549 129 b 300 61 471 93 386 61 b 192 143 244 61 192 78 b 308 246 192 213 251 232 b 549 274 383 264 469 271 z m 417 782 l 613 649 l 664 700 l 417 914 l 169 700 l 221 649 z "},"ä":{"ha":833,"x_min":0,"x_max":0,"o":"m 549 0 l 750 0 l 750 78 l 635 78 l 635 418 b 443 592 635 554 585 592 b 172 511 353 592 253 560 l 172 378 l 258 378 l 258 460 b 456 514 317 499 386 514 b 549 383 561 514 549 463 l 549 347 b 285 319 456 344 371 340 b 101 143 189 297 101 257 b 296 -17 101 31 194 -17 b 549 42 385 -17 465 7 z m 549 129 b 300 61 471 93 386 61 b 192 143 244 61 192 78 b 308 246 192 213 251 232 b 549 274 383 264 469 271 z m 186 781 b 269 700 186 735 225 700 b 353 781 314 700 353 735 b 269 861 353 826 314 861 b 186 781 225 861 186 826 z m 481 781 b 564 700 481 735 519 700 b 647 781 608 700 647 735 b 564 861 647 826 608 861 b 481 781 519 861 481 826 z "},"à":{"ha":833,"x_min":0,"x_max":0,"o":"m 549 0 l 750 0 l 750 78 l 635 78 l 635 418 b 443 592 635 554 585 592 b 172 511 353 592 253 560 l 172 378 l 258 378 l 258 460 b 456 514 317 499 386 514 b 549 383 561 514 549 463 l 549 347 b 285 319 456 344 371 340 b 101 143 189 297 101 257 b 296 -17 101 31 194 -17 b 549 42 385 -17 465 7 z m 549 129 b 300 61 471 93 386 61 b 192 143 244 61 192 78 b 308 246 192 213 251 232 b 549 274 383 264 469 271 z m 269 917 l 199 832 l 481 646 l 531 707 z "},"å":{"ha":833,"x_min":0,"x_max":0,"o":"m 549 0 l 750 0 l 750 78 l 635 78 l 635 418 b 443 592 635 554 585 592 b 172 511 353 592 253 560 l 172 378 l 258 378 l 258 460 b 456 514 317 499 386 514 b 549 383 561 514 549 463 l 549 347 b 285 319 456 344 371 340 b 101 143 189 297 101 257 b 296 -17 101 31 194 -17 b 549 42 385 -17 465 7 z m 549 129 b 300 61 471 93 386 61 b 192 143 244 61 192 78 b 308 246 192 213 251 232 b 549 274 383 264 469 271 z m 289 781 b 417 657 289 711 347 657 b 544 781 486 657 544 711 b 417 904 544 851 486 904 b 289 781 349 904 289 850 z m 371 781 b 417 836 371 807 388 836 b 463 781 446 836 463 807 b 417 725 463 754 446 725 b 371 781 388 725 371 754 z "},"ã":{"ha":833,"x_min":0,"x_max":0,"o":"m 549 0 l 750 0 l 750 78 l 635 78 l 635 418 b 443 592 635 554 585 592 b 172 511 353 592 253 560 l 172 378 l 258 378 l 258 460 b 456 514 317 499 386 514 b 549 383 561 514 549 463 l 549 347 b 285 319 456 344 371 340 b 101 143 189 297 101 257 b 296 -17 101 31 194 -17 b 549 42 385 -17 465 7 z m 549 129 b 300 61 471 93 386 61 b 192 143 244 61 192 78 b 308 246 192 213 251 232 b 549 274 383 264 469 271 z m 283 703 b 322 782 282 731 282 782 b 399 749 346 782 379 760 b 513 707 433 729 472 707 b 615 757 563 707 596 726 b 639 869 635 788 643 828 l 550 869 b 511 789 547 843 550 789 b 428 828 490 789 461 808 b 317 865 394 847 357 865 b 218 815 269 865 238 846 b 194 703 199 785 192 744 z "},"ç":{"ha":833,"x_min":0,"x_max":0,"o":"m 676 122 b 440 61 606 86 519 61 b 210 292 303 61 210 154 b 431 514 210 421 301 514 b 564 393 518 514 567 483 l 563 354 l 651 354 l 647 425 l 650 494 b 438 592 611 568 514 592 b 119 282 257 592 119 465 b 363 -8 119 126 222 19 l 335 -119 l 419 -111 b 500 -153 447 -111 500 -115 b 408 -208 500 -196 443 -208 b 254 -165 354 -208 303 -187 l 254 -247 b 413 -286 301 -274 358 -286 b 590 -153 494 -286 590 -249 b 439 -33 590 -68 514 -32 l 443 -17 b 707 51 531 -15 629 8 z "},"é":{"ha":833,"x_min":0,"x_max":0,"o":"m 708 254 b 714 313 713 274 714 293 b 431 592 714 485 601 592 b 121 275 251 592 121 453 b 451 -17 121 150 200 -17 b 744 56 549 -17 657 13 l 719 126 b 463 61 633 89 550 61 b 211 254 314 61 219 133 z m 211 332 b 432 514 232 436 326 514 b 626 332 536 514 626 440 z m 564 917 l 303 707 l 354 646 l 635 832 z "},"ê":{"ha":833,"x_min":0,"x_max":0,"o":"m 708 254 b 714 313 713 274 714 293 b 431 592 714 485 601 592 b 121 275 251 592 121 453 b 451 -17 121 150 200 -17 b 744 56 549 -17 657 13 l 719 126 b 463 61 633 89 550 61 b 211 254 314 61 219 133 z m 211 332 b 432 514 232 436 326 514 b 626 332 536 514 626 440 z m 417 782 l 613 649 l 664 700 l 417 914 l 169 700 l 221 649 z "},"ë":{"ha":833,"x_min":0,"x_max":0,"o":"m 708 254 b 714 313 713 274 714 293 b 431 592 714 485 601 592 b 121 275 251 592 121 453 b 451 -17 121 150 200 -17 b 744 56 549 -17 657 13 l 719 126 b 463 61 633 89 550 61 b 211 254 314 61 219 133 z m 211 332 b 432 514 232 436 326 514 b 626 332 536 514 626 440 z m 186 781 b 269 700 186 735 225 700 b 353 781 314 700 353 735 b 269 861 353 826 314 861 b 186 781 225 861 186 826 z m 481 781 b 564 700 481 735 519 700 b 647 781 608 700 647 735 b 564 861 647 826 608 861 b 481 781 519 861 481 826 z "},"è":{"ha":833,"x_min":0,"x_max":0,"o":"m 708 254 b 714 313 713 274 714 293 b 431 592 714 485 601 592 b 121 275 251 592 121 453 b 451 -17 121 150 200 -17 b 744 56 549 -17 657 13 l 719 126 b 463 61 633 89 550 61 b 211 254 314 61 219 133 z m 211 332 b 432 514 232 436 326 514 b 626 332 536 514 626 440 z m 269 917 l 199 832 l 481 646 l 531 707 z "},"í":{"ha":833,"x_min":0,"x_max":0,"o":"m 142 0 l 749 0 l 749 78 l 504 78 l 504 543 b 463 615 504 574 506 615 b 425 594 444 615 436 607 b 269 556 394 558 313 553 l 143 564 l 157 488 l 275 481 b 418 494 324 478 371 486 l 418 78 l 142 78 z m 564 917 l 303 707 l 354 646 l 635 832 z "},"î":{"ha":833,"x_min":0,"x_max":0,"o":"m 142 0 l 749 0 l 749 78 l 504 78 l 504 543 b 463 615 504 574 506 615 b 425 594 444 615 436 607 b 269 556 394 558 313 553 l 143 564 l 157 488 l 275 481 b 418 494 324 478 371 486 l 418 78 l 142 78 z m 417 782 l 613 649 l 664 700 l 417 914 l 169 700 l 221 649 z "},"ï":{"ha":833,"x_min":0,"x_max":0,"o":"m 142 0 l 749 0 l 749 78 l 504 78 l 504 543 b 463 615 504 574 506 615 b 425 594 444 615 436 607 b 269 556 394 558 313 553 l 143 564 l 157 488 l 275 481 b 418 494 324 478 371 486 l 418 78 l 142 78 z m 186 781 b 269 700 186 735 225 700 b 353 781 314 700 353 735 b 269 861 353 826 314 861 b 186 781 225 861 186 826 z m 481 781 b 564 700 481 735 519 700 b 647 781 608 700 647 735 b 564 861 647 826 608 861 b 481 781 519 861 481 826 z "},"ì":{"ha":833,"x_min":0,"x_max":0,"o":"m 142 0 l 749 0 l 749 78 l 504 78 l 504 543 b 463 615 504 574 506 615 b 425 594 444 615 436 607 b 269 556 394 558 313 553 l 143 564 l 157 488 l 275 481 b 418 494 324 478 371 486 l 418 78 l 142 78 z m 269 917 l 199 832 l 481 646 l 531 707 z "},"ñ":{"ha":833,"x_min":0,"x_max":0,"o":"m 253 436 b 474 514 318 476 394 514 b 582 335 588 514 582 419 l 582 78 l 488 78 l 488 0 l 763 0 l 763 78 l 668 78 l 668 338 b 644 504 668 392 669 456 b 474 592 613 567 540 592 b 253 525 393 592 324 558 l 253 546 b 213 615 253 576 253 615 b 175 592 194 615 186 604 b 53 554 143 563 97 557 l 65 483 l 167 497 l 167 78 l 72 78 l 72 0 l 347 0 l 347 78 l 253 78 z m 283 703 b 322 782 282 731 282 782 b 399 749 346 782 379 760 b 513 707 433 729 472 707 b 615 757 563 707 596 726 b 639 869 635 788 643 828 l 550 869 b 511 789 547 843 550 789 b 428 828 490 789 461 808 b 317 865 394 847 357 865 b 218 815 269 865 238 846 b 194 703 199 785 192 744 z "},"ó":{"ha":833,"x_min":0,"x_max":0,"o":"m 417 -17 b 719 288 589 -17 719 117 b 417 592 719 460 589 592 b 114 288 244 592 114 460 b 417 -17 114 117 244 -17 z m 417 61 b 204 288 289 61 204 165 b 417 514 204 411 289 514 b 629 288 544 514 629 411 b 417 61 629 165 544 61 z m 564 917 l 303 707 l 354 646 l 635 832 z "},"ô":{"ha":833,"x_min":0,"x_max":0,"o":"m 417 -17 b 719 288 589 -17 719 117 b 417 592 719 460 589 592 b 114 288 244 592 114 460 b 417 -17 114 117 244 -17 z m 417 61 b 204 288 289 61 204 165 b 417 514 204 411 289 514 b 629 288 544 514 629 411 b 417 61 629 165 544 61 z m 417 782 l 613 649 l 664 700 l 417 914 l 169 700 l 221 649 z "},"ö":{"ha":833,"x_min":0,"x_max":0,"o":"m 417 -17 b 719 288 589 -17 719 117 b 417 592 719 460 589 592 b 114 288 244 592 114 460 b 417 -17 114 117 244 -17 z m 417 61 b 204 288 289 61 204 165 b 417 514 204 411 289 514 b 629 288 544 514 629 411 b 417 61 629 165 544 61 z m 186 781 b 269 700 186 735 225 700 b 353 781 314 700 353 735 b 269 861 353 826 314 861 b 186 781 225 861 186 826 z m 481 781 b 564 700 481 735 519 700 b 647 781 608 700 647 735 b 564 861 647 826 608 861 b 481 781 519 861 481 826 z "},"ò":{"ha":833,"x_min":0,"x_max":0,"o":"m 417 -17 b 719 288 589 -17 719 117 b 417 592 719 460 589 592 b 114 288 244 592 114 460 b 417 -17 114 117 244 -17 z m 417 61 b 204 288 289 61 204 165 b 417 514 204 411 289 514 b 629 288 544 514 629 411 b 417 61 629 165 544 61 z m 269 917 l 199 832 l 481 646 l 531 707 z "},"õ":{"ha":833,"x_min":0,"x_max":0,"o":"m 417 -17 b 719 288 589 -17 719 117 b 417 592 719 460 589 592 b 114 288 244 592 114 460 b 417 -17 114 117 244 -17 z m 417 61 b 204 288 289 61 204 165 b 417 514 204 411 289 514 b 629 288 544 514 629 411 b 417 61 629 165 544 61 z m 283 703 b 322 782 282 731 282 782 b 399 749 346 782 379 760 b 513 707 433 729 472 707 b 615 757 563 707 596 726 b 639 869 635 788 643 828 l 550 869 b 511 789 547 843 550 789 b 428 828 490 789 461 808 b 317 865 394 847 357 865 b 218 815 269 865 238 846 b 194 703 199 785 192 744 z "},"š":{"ha":833,"x_min":0,"x_max":0,"o":"m 597 560 b 419 592 539 579 481 592 b 171 406 299 592 171 533 b 604 153 171 169 604 307 b 433 61 604 76 485 61 b 225 225 267 61 242 110 l 139 214 b 157 111 153 182 157 146 b 140 0 157 74 151 36 l 214 -22 l 228 28 b 426 -17 299 -3 349 -17 b 694 151 535 -17 694 18 b 261 411 694 390 261 264 b 422 514 261 494 357 514 b 590 406 560 514 581 474 l 594 375 l 678 382 b 668 471 671 411 668 440 b 688 606 668 517 676 561 l 611 621 z m 417 779 l 221 914 l 169 861 l 417 647 l 664 861 l 613 914 z "},"ú":{"ha":833,"x_min":0,"x_max":0,"o":"m 581 0 l 778 0 l 778 78 l 667 78 l 667 546 b 626 615 667 576 667 615 b 589 592 608 615 600 604 b 467 554 557 563 511 557 l 479 483 l 581 497 l 581 119 b 378 61 519 89 447 61 b 254 249 286 61 254 106 l 254 546 b 214 615 254 576 254 615 b 176 592 196 615 188 604 b 54 554 144 563 99 557 l 67 483 l 168 497 l 168 221 b 379 -17 168 54 246 -17 b 581 35 456 -17 513 7 z m 564 917 l 303 707 l 354 646 l 635 832 z "},"û":{"ha":833,"x_min":0,"x_max":0,"o":"m 581 0 l 778 0 l 778 78 l 667 78 l 667 546 b 626 615 667 576 667 615 b 589 592 608 615 600 604 b 467 554 557 563 511 557 l 479 483 l 581 497 l 581 119 b 378 61 519 89 447 61 b 254 249 286 61 254 106 l 254 546 b 214 615 254 576 254 615 b 176 592 196 615 188 604 b 54 554 144 563 99 557 l 67 483 l 168 497 l 168 221 b 379 -17 168 54 246 -17 b 581 35 456 -17 513 7 z m 417 782 l 613 649 l 664 700 l 417 914 l 169 700 l 221 649 z "},"ü":{"ha":833,"x_min":0,"x_max":0,"o":"m 581 0 l 778 0 l 778 78 l 667 78 l 667 546 b 626 615 667 576 667 615 b 589 592 608 615 600 604 b 467 554 557 563 511 557 l 479 483 l 581 497 l 581 119 b 378 61 519 89 447 61 b 254 249 286 61 254 106 l 254 546 b 214 615 254 576 254 615 b 176 592 196 615 188 604 b 54 554 144 563 99 557 l 67 483 l 168 497 l 168 221 b 379 -17 168 54 246 -17 b 581 35 456 -17 513 7 z m 186 781 b 269 700 186 735 225 700 b 353 781 314 700 353 735 b 269 861 353 826 314 861 b 186 781 225 861 186 826 z m 481 781 b 564 700 481 735 519 700 b 647 781 608 700 647 735 b 564 861 647 826 608 861 b 481 781 519 861 481 826 z "},"ù":{"ha":833,"x_min":0,"x_max":0,"o":"m 581 0 l 778 0 l 778 78 l 667 78 l 667 546 b 626 615 667 576 667 615 b 589 592 608 615 600 604 b 467 554 557 563 511 557 l 479 483 l 581 497 l 581 119 b 378 61 519 89 447 61 b 254 249 286 61 254 106 l 254 546 b 214 615 254 576 254 615 b 176 592 196 615 188 604 b 54 554 144 563 99 557 l 67 483 l 168 497 l 168 221 b 379 -17 168 54 246 -17 b 581 35 456 -17 513 7 z m 269 917 l 199 832 l 481 646 l 531 707 z "},"ý":{"ha":833,"x_min":0,"x_max":0,"o":"m 56 575 l 56 497 l 143 497 l 381 39 l 338 -57 b 204 -211 313 -112 276 -211 b 79 -164 158 -211 114 -192 l 46 -239 b 200 -289 89 -269 146 -289 b 418 -82 332 -289 372 -185 l 675 497 l 764 497 l 764 575 l 476 575 l 476 497 l 586 497 l 424 136 l 236 497 l 344 497 l 344 575 z m 564 917 l 303 707 l 354 646 l 635 832 z "},"ÿ":{"ha":833,"x_min":0,"x_max":0,"o":"m 56 575 l 56 497 l 143 497 l 381 39 l 338 -57 b 204 -211 313 -112 276 -211 b 79 -164 158 -211 114 -192 l 46 -239 b 200 -289 89 -269 146 -289 b 418 -82 332 -289 372 -185 l 675 497 l 764 497 l 764 575 l 476 575 l 476 497 l 586 497 l 424 136 l 236 497 l 344 497 l 344 575 z m 186 781 b 269 700 186 735 225 700 b 353 781 314 700 353 735 b 269 861 353 826 314 861 b 186 781 225 861 186 826 z m 481 781 b 564 700 481 735 519 700 b 647 781 608 700 647 735 b 564 861 647 826 608 861 b 481 781 519 861 481 826 z "},"ž":{"ha":833,"x_min":0,"x_max":0,"o":"m 171 575 l 143 368 l 226 368 l 231 396 b 325 497 244 493 231 497 l 553 497 l 129 75 l 129 0 l 678 0 l 704 210 l 624 210 l 610 129 b 531 78 599 72 596 78 l 249 78 l 679 508 l 679 575 z m 417 779 l 221 914 l 169 861 l 417 647 l 664 861 l 613 914 z "},"":{"ha":833,"x_min":0,"x_max":0,"o":"m 594 774 b 417 850 543 828 481 850 b 129 417 272 850 129 735 b 188 131 129 290 151 197 l 111 10 l 181 -35 l 239 58 b 417 -17 290 6 353 -17 b 704 417 561 -17 704 99 b 647 701 704 542 682 635 l 721 818 l 651 863 z m 244 221 b 219 417 225 288 219 361 b 417 772 219 544 244 772 b 549 701 476 772 519 744 z m 589 610 b 614 417 610 546 614 472 b 417 61 614 289 589 61 b 285 131 356 61 314 89 z "},"⅛":{"ha":833,"x_min":0,"x_max":0,"o":"m 713 228 b 783 338 753 258 783 282 b 640 446 783 414 706 446 b 497 338 575 446 497 414 b 568 228 497 282 528 258 b 481 114 518 201 481 178 b 640 -17 481 32 567 -17 b 800 114 714 -17 800 32 b 713 228 800 178 764 201 z m 640 396 b 724 336 679 396 724 382 b 640 250 724 288 683 267 b 557 336 599 267 557 286 b 640 396 557 381 601 396 z m 740 117 b 640 33 740 67 688 33 b 540 117 594 33 540 67 b 640 199 540 171 594 193 b 740 117 686 193 740 171 z m 590 879 l 204 -6 l 260 -39 l 646 847 z m 232 803 b 203 850 232 825 233 850 b 174 833 188 850 183 843 b 92 819 163 821 110 819 l 65 819 l 74 772 l 103 771 b 172 778 125 769 149 772 l 172 446 l 76 446 l 76 396 l 319 396 l 319 446 l 232 446 z "},"⅜":{"ha":833,"x_min":0,"x_max":0,"o":"m 713 228 b 783 338 753 258 783 282 b 640 446 783 414 706 446 b 497 338 575 446 497 414 b 568 228 497 282 528 258 b 481 114 518 201 481 178 b 640 -17 481 32 567 -17 b 800 114 714 -17 800 32 b 713 228 800 178 764 201 z m 640 396 b 724 336 679 396 724 382 b 640 250 724 288 683 267 b 557 336 599 267 557 286 b 640 396 557 381 601 396 z m 740 117 b 640 33 740 67 688 33 b 540 117 594 33 540 67 b 640 199 540 171 594 193 b 740 117 686 193 740 171 z m 582 879 l 196 -6 l 251 -39 l 638 847 z m 181 614 b 272 525 236 614 272 582 b 167 438 272 464 222 438 b 46 471 124 438 82 449 l 22 425 b 167 388 64 400 117 388 b 332 528 251 388 332 433 b 265 640 332 583 308 610 b 310 726 293 665 310 686 b 176 850 310 803 251 850 b 50 758 131 850 50 814 b 78 731 50 743 63 731 b 129 785 108 731 126 758 b 179 800 140 799 164 800 b 250 724 224 800 250 764 b 169 661 250 675 211 661 b 135 665 158 661 147 663 l 135 610 z "},"⅝":{"ha":833,"x_min":0,"x_max":0,"o":"m 713 228 b 783 338 753 258 783 282 b 640 446 783 414 706 446 b 497 338 575 446 497 414 b 568 228 497 282 528 258 b 481 114 518 201 481 178 b 640 -17 481 32 567 -17 b 800 114 714 -17 800 32 b 713 228 800 178 764 201 z m 640 396 b 724 336 679 396 724 382 b 640 250 724 288 683 267 b 557 336 599 267 557 286 b 640 396 557 381 601 396 z m 740 117 b 640 33 740 67 688 33 b 540 117 594 33 540 67 b 640 199 540 171 594 193 b 740 117 686 193 740 171 z m 306 833 l 79 833 l 63 631 b 161 646 94 640 128 646 b 264 546 224 646 264 608 b 132 429 264 469 204 429 b 33 450 96 429 67 438 l 19 403 b 136 379 57 389 96 379 b 326 553 240 379 326 443 b 161 696 326 647 246 703 l 125 693 l 133 783 l 306 783 z m 574 879 l 188 -6 l 243 -39 l 629 847 z "},"⅞":{"ha":833,"x_min":0,"x_max":0,"o":"m 713 228 b 783 338 753 258 783 282 b 640 446 783 414 706 446 b 497 338 575 446 497 414 b 568 228 497 282 528 258 b 481 114 518 201 481 178 b 640 -17 481 32 567 -17 b 800 114 714 -17 800 32 b 713 228 800 178 764 201 z m 640 396 b 724 336 679 396 724 382 b 640 250 724 288 683 267 b 557 336 599 267 557 286 b 640 396 557 381 601 396 z m 740 117 b 640 33 740 67 688 33 b 540 117 594 33 540 67 b 640 199 540 171 594 193 b 740 117 686 193 740 171 z m 42 833 l 42 783 l 258 783 l 83 379 l 147 379 l 340 833 z m 532 879 l 146 -6 l 201 -39 l 588 847 z "},"Đ":{"ha":833,"x_min":0,"x_max":0,"o":"m 86 403 l 200 403 l 200 78 l 86 67 l 99 -11 l 242 6 b 428 0 303 13 365 0 b 767 411 614 0 767 106 b 396 833 767 703 597 833 b 225 817 332 833 279 817 b 93 833 181 817 138 828 l 90 768 l 200 744 l 200 481 l 86 481 z m 286 744 l 386 756 b 676 394 508 769 676 672 b 425 78 676 161 575 78 l 286 78 l 286 403 l 419 403 l 419 481 l 286 481 z "},"Ŋ":{"ha":833,"x_min":0,"x_max":0,"o":"m 269 833 l 82 833 l 82 756 l 183 756 l 183 78 l 82 78 l 82 0 l 372 0 l 372 78 l 269 78 l 269 532 b 453 772 269 647 351 772 b 603 618 539 772 603 729 l 603 67 b 486 -33 603 -19 565 -33 l 486 -111 b 689 39 572 -111 689 -97 l 689 644 b 458 850 689 781 589 850 b 272 722 376 850 311 806 l 269 722 z "},"Ħ":{"ha":833,"x_min":0,"x_max":0,"o":"m 586 565 l 586 453 l 247 453 l 247 565 z m 161 78 l 46 78 l 46 0 l 363 0 l 363 78 l 247 78 l 247 375 l 586 375 l 586 78 l 471 78 l 471 0 l 788 0 l 788 78 l 672 78 l 672 565 l 788 565 l 788 643 l 672 643 l 672 756 l 788 756 l 788 833 l 471 833 l 471 756 l 586 756 l 586 643 l 247 643 l 247 756 l 363 756 l 363 833 l 46 833 l 46 756 l 161 756 l 161 643 l 46 643 l 46 565 l 161 565 z "},"Ĳ":{"ha":833,"x_min":0,"x_max":0,"o":"m 64 833 l 64 756 l 175 756 l 175 78 l 64 78 l 64 0 l 372 0 l 372 78 l 261 78 l 261 756 l 372 756 l 372 833 z m 561 833 l 561 756 l 647 756 l 647 183 b 594 64 647 144 651 64 b 518 246 508 64 518 190 l 518 281 l 432 281 l 432 64 b 592 -17 474 19 531 -17 b 733 182 717 -17 733 82 l 733 756 l 803 756 l 803 833 z "},"Ŀ":{"ha":833,"x_min":0,"x_max":0,"o":"m 61 833 l 61 756 l 211 756 l 211 78 l 61 78 l 61 0 l 751 0 l 751 292 l 665 292 l 665 253 b 517 78 665 104 669 78 l 297 78 l 297 756 l 454 756 l 454 833 z m 604 575 b 686 492 604 529 642 492 b 768 575 731 492 768 529 b 686 657 768 619 731 657 b 604 575 642 657 604 619 z "},"Ŧ":{"ha":833,"x_min":0,"x_max":0,"o":"m 460 369 l 676 369 l 676 447 l 460 447 l 460 756 l 572 756 b 676 646 668 756 676 743 l 676 571 l 763 571 l 763 833 l 71 833 l 71 571 l 157 571 l 157 646 b 261 756 157 743 165 756 l 374 756 l 374 447 l 157 447 l 157 369 l 374 369 l 374 78 l 192 78 l 192 0 l 642 0 l 642 78 l 460 78 z "},"đ":{"ha":833,"x_min":0,"x_max":0,"o":"m 546 111 b 399 61 504 81 451 61 b 201 282 279 61 201 169 b 413 514 201 408 279 514 b 546 475 460 514 506 499 z m 546 0 l 740 0 l 740 78 l 632 78 l 632 650 l 740 650 l 740 728 l 632 728 l 632 842 b 592 911 632 872 632 911 b 554 888 574 911 565 900 b 408 847 522 850 453 856 l 421 776 l 546 793 l 546 728 l 342 728 l 342 650 l 546 650 l 546 563 b 393 592 499 576 442 592 b 111 283 226 592 111 442 b 393 -17 111 125 229 -17 b 546 22 451 -17 493 0 z "},"ŋ":{"ha":833,"x_min":0,"x_max":0,"o":"m 269 436 b 490 514 335 476 411 514 b 599 335 604 514 599 419 l 599 67 b 482 -33 599 -19 561 -33 l 482 -111 b 685 39 568 -111 685 -97 l 685 338 b 661 504 685 392 686 456 b 490 592 629 567 557 592 b 269 525 410 592 340 558 l 269 546 b 229 615 269 576 269 615 b 192 592 211 615 203 604 b 69 554 160 563 114 557 l 82 483 l 183 497 l 183 78 l 86 78 l 86 0 l 364 0 l 364 78 l 269 78 z "},"ħ":{"ha":833,"x_min":0,"x_max":0,"o":"m 253 842 b 213 911 253 872 253 911 b 175 888 194 911 186 900 b 29 847 143 850 74 856 l 42 776 l 167 793 l 167 728 l 29 728 l 29 650 l 167 650 l 167 78 l 69 78 l 69 0 l 347 0 l 347 78 l 253 78 l 253 436 b 474 514 318 476 394 514 b 582 335 588 514 582 419 l 582 78 l 488 78 l 488 0 l 763 0 l 763 78 l 668 78 l 668 338 b 644 504 668 392 669 456 b 474 592 613 567 540 592 b 253 525 393 592 324 558 l 253 650 l 446 650 l 446 728 l 253 728 z "},"ĳ":{"ha":833,"x_min":0,"x_max":0,"o":"m 56 0 l 467 0 l 467 78 l 304 78 l 304 543 b 263 615 304 574 306 615 b 225 594 244 615 236 607 b 151 561 210 576 182 567 b 22 560 122 556 90 554 l 36 483 l 75 481 b 218 494 124 478 171 486 l 218 78 l 56 78 z m 336 804 b 247 892 336 854 294 892 b 157 804 199 892 157 854 b 247 718 157 756 199 718 b 336 804 294 718 336 756 z m 707 543 b 665 615 707 574 708 615 b 628 594 647 615 639 607 b 554 561 613 576 585 567 b 425 560 525 556 494 556 l 439 483 l 478 481 b 621 494 526 478 574 486 l 621 -26 b 515 -211 621 -111 632 -211 b 285 -136 433 -211 353 -182 l 229 -206 b 521 -289 313 -261 422 -289 b 692 -182 597 -289 668 -258 b 707 4 710 -125 707 -56 z m 757 804 b 668 892 757 854 715 892 b 578 804 619 892 578 854 b 668 718 578 756 619 718 b 757 804 715 718 757 756 z "},"ŀ":{"ha":833,"x_min":0,"x_max":0,"o":"m 669 510 b 751 428 669 464 707 428 b 833 510 796 428 833 464 b 751 592 833 554 796 592 b 669 510 707 592 669 554 z m 401 839 b 360 911 401 869 403 911 b 322 890 342 911 333 903 b 249 857 307 872 279 863 b 133 850 219 851 189 853 l 147 774 b 315 790 221 776 268 782 l 315 78 l 111 78 l 111 0 l 606 0 l 606 78 l 401 78 z "},"ŧ":{"ha":833,"x_min":0,"x_max":0,"o":"m 365 497 l 689 497 l 689 575 l 365 575 l 365 729 l 279 729 l 279 575 l 79 575 l 79 497 l 279 497 l 279 381 l 79 381 l 79 303 l 279 303 l 279 181 b 322 33 279 114 294 65 b 446 -17 351 0 393 -17 b 725 33 532 -17 640 10 l 697 107 b 454 61 624 85 529 61 b 365 219 357 61 365 147 l 365 303 l 689 303 l 689 381 l 365 381 z "},"ĸ":{"ha":833,"x_min":0,"x_max":0,"o":"m 265 667 b 225 736 265 697 265 736 b 188 713 207 736 199 725 b 42 672 156 675 86 681 l 54 601 l 179 618 l 179 78 l 47 78 l 47 0 l 369 0 l 369 78 l 265 78 l 265 185 l 371 314 l 568 78 l 506 78 l 506 0 l 778 0 l 778 78 l 671 78 l 419 374 l 594 589 b 731 658 635 638 692 658 l 731 736 b 658 726 708 736 683 733 b 567 674 624 717 589 701 l 265 304 z "},"ŉ":{"ha":833,"x_min":0,"x_max":0,"o":"m 379 436 b 561 514 429 476 494 514 b 647 335 646 514 647 419 l 647 78 l 574 78 l 574 0 l 807 0 l 807 78 l 733 78 l 733 338 b 708 506 733 392 732 456 b 561 592 679 567 618 592 b 379 525 492 592 433 558 l 379 546 b 339 615 379 576 374 615 b 308 592 324 615 317 604 b 203 554 279 563 242 557 l 215 483 l 293 497 l 293 78 l 218 78 l 218 0 l 454 0 l 454 78 l 379 78 z m 28 547 b 224 738 118 567 224 636 b 122 850 224 796 183 850 b 26 754 67 850 26 810 b 108 669 26 707 63 672 b 28 628 86 647 58 635 z "},"∆":{"ha":833,"x_min":0,"x_max":0,"o":"m 24 0 l 810 0 l 810 60 l 467 861 l 369 861 l 24 60 z m 108 64 l 328 583 b 411 792 354 646 397 756 l 418 792 b 511 558 438 740 486 619 l 718 64 z "},"Ω":{"ha":833,"x_min":0,"x_max":0,"o":"m 417 772 b 682 463 585 772 682 608 b 465 174 682 319 615 194 l 465 0 l 768 0 l 768 78 l 546 78 l 546 128 b 772 467 694 163 772 326 b 417 850 772 663 633 850 b 61 467 200 850 61 663 b 288 128 61 326 139 163 l 288 78 l 65 78 l 65 0 l 368 0 l 368 174 b 151 463 218 194 151 319 b 417 772 151 608 249 772 z "},"π":{"ha":833,"x_min":0,"x_max":0,"o":"m 83 575 l 83 497 l 194 497 l 194 0 l 281 0 l 281 497 l 553 497 l 553 0 l 639 0 l 639 497 l 750 497 l 750 575 z "},"‗":{"ha":833,"x_min":0,"x_max":0,"o":"m 833 -150 l 833 -100 l 0 -100 l 0 -150 z m 833 -300 l 833 -250 l 0 -250 l 0 -300 z "},"‼":{"ha":833,"x_min":0,"x_max":0,"o":"m 289 214 l 338 775 b 254 850 342 819 297 850 b 171 775 211 850 167 819 l 219 214 z m 172 63 b 254 -17 172 18 210 -17 b 336 63 299 -17 336 18 b 254 142 336 107 297 142 b 172 63 211 142 172 107 z m 614 214 l 663 775 b 579 850 667 819 622 850 b 496 775 536 850 492 819 l 544 214 z m 497 63 b 579 -17 497 18 535 -17 b 661 63 624 -17 661 18 b 579 142 661 107 622 142 b 497 63 536 142 497 107 z "},"₣":{"ha":833,"x_min":0,"x_max":0,"o":"m 14 0 l 293 0 l 293 78 l 156 78 l 156 393 l 278 393 l 278 293 l 342 293 l 342 558 l 278 558 l 278 471 l 156 471 l 156 756 l 313 756 b 386 690 388 756 386 739 l 386 657 l 450 657 l 450 833 l 14 833 l 14 756 l 78 756 l 78 78 l 14 78 z m 604 488 l 604 544 b 567 614 604 575 604 614 b 531 590 544 614 539 603 b 458 553 510 561 483 556 l 468 482 l 526 496 l 526 78 l 454 78 l 454 0 l 754 0 l 754 78 l 604 78 l 604 393 b 710 514 625 426 661 514 b 756 461 740 514 744 489 l 819 500 b 721 592 801 543 769 592 b 607 488 665 592 631 538 z "},"€":{"ha":833,"x_min":0,"x_max":0,"o":"m 565 281 l 596 358 l 285 358 b 283 418 283 378 283 399 b 285 472 283 436 283 454 l 640 472 l 671 550 l 293 550 b 489 772 311 678 371 772 b 643 615 569 772 635 728 l 713 615 l 713 736 b 488 850 679 765 619 850 b 203 550 368 850 238 772 l 96 550 l 67 472 l 196 472 b 194 415 196 457 194 432 b 196 358 194 392 194 379 l 92 358 l 61 281 l 204 281 b 481 -17 235 67 363 -17 b 725 108 590 -17 665 32 l 725 239 l 653 239 b 486 61 649 128 606 61 b 294 281 369 61 314 158 z "},"℮":{"ha":833,"x_min":0,"x_max":0,"o":"m 832 349 l 832 360 b 415 735 832 567 646 735 b 0 360 186 735 0 567 b 415 -14 0 154 186 -14 b 744 131 550 -14 671 43 l 685 131 b 417 7 619 57 525 7 b 163 118 317 7 226 50 b 153 142 156 125 153 132 l 153 346 b 158 349 153 349 154 349 z m 679 375 b 675 369 679 375 678 369 l 158 369 b 153 375 154 369 153 375 l 153 576 b 164 603 153 586 156 596 b 417 711 228 668 318 711 b 669 604 515 711 604 669 b 679 581 675 599 679 590 z "},"∂":{"ha":833,"x_min":0,"x_max":0,"o":"m 176 808 b 376 868 215 835 282 868 b 663 481 526 868 663 724 b 660 415 663 463 663 433 b 394 563 636 453 544 563 b 90 267 232 563 90 447 b 369 -12 90 147 175 -12 b 743 472 622 -12 743 239 b 382 929 743 764 569 929 b 142 858 264 929 188 892 z m 375 49 b 171 271 251 49 171 151 b 408 503 171 401 282 503 b 647 342 536 503 625 399 b 375 49 624 192 526 49 z "},"∏":{"ha":833,"x_min":0,"x_max":0,"o":"m 822 767 l 822 835 l 11 835 l 11 767 l 142 767 l 142 -114 l 221 -114 l 221 767 l 613 767 l 613 -114 l 692 -114 l 692 767 z "},"∑":{"ha":833,"x_min":0,"x_max":0,"o":"m 290 756 l 628 756 l 628 833 l 201 833 l 201 751 l 432 442 l 201 83 l 201 0 l 632 0 l 632 78 l 282 78 l 521 439 z "},"∙":{"ha":833,"x_min":0,"x_max":0,"o":"m 324 500 b 417 407 324 449 365 407 b 511 500 468 407 511 449 b 417 594 511 551 468 594 b 324 500 365 594 324 551 z "},"√":{"ha":833,"x_min":0,"x_max":0,"o":"m 3 615 l 3 524 l 151 524 l 313 -65 l 632 1013 l 831 1013 l 831 1104 l 563 1104 l 315 269 l 221 615 z "},"∞":{"ha":833,"x_min":0,"x_max":0,"o":"m 417 419 b 635 282 479 353 535 282 b 815 506 758 282 815 396 b 631 718 815 615 749 718 b 417 583 533 718 471 657 b 204 718 363 651 299 718 b 18 500 85 718 18 610 b 204 282 18 386 81 282 b 417 419 294 282 368 349 z m 115 500 b 203 626 115 556 136 626 b 363 500 274 626 331 554 b 203 374 331 446 274 374 b 115 500 136 374 115 444 z m 718 500 b 631 374 718 444 697 374 b 471 500 560 374 503 446 b 631 626 503 554 560 626 b 718 500 697 626 718 556 z "},"∫":{"ha":833,"x_min":0,"x_max":0,"o":"m 644 996 b 568 1017 629 1004 597 1017 b 450 972 526 1017 486 1004 b 376 724 397 925 376 851 b 397 111 376 539 397 301 b 342 -103 397 -18 372 -68 b 275 -129 325 -118 299 -129 b 206 -110 244 -129 218 -117 l 189 -164 b 281 -187 206 -174 246 -187 b 406 -131 329 -187 376 -168 b 467 110 435 -93 467 -24 b 447 715 467 297 447 531 b 499 933 447 826 461 894 b 572 960 518 954 550 960 b 628 943 590 960 617 953 z "},"≈":{"ha":833,"x_min":0,"x_max":0,"o":"m 240 703 b 11 518 124 703 64 608 l 83 464 b 240 611 121 524 158 611 b 367 571 279 611 331 586 b 567 508 419 550 511 508 b 793 683 669 508 750 599 l 721 736 b 565 600 694 679 636 600 b 417 651 532 600 476 625 b 240 703 357 678 292 703 z m 269 503 b 40 318 153 503 93 408 l 113 264 b 269 411 150 324 188 411 b 396 371 308 411 360 386 b 596 308 449 350 540 308 b 822 483 699 308 779 399 l 750 536 b 594 400 724 479 665 400 b 446 451 561 400 506 425 b 269 503 386 478 321 503 z "},"≠":{"ha":833,"x_min":0,"x_max":0,"o":"m 389 374 l 799 374 l 799 464 l 438 464 l 481 536 l 799 536 l 799 626 l 532 626 l 608 758 b 528 800 578 776 563 783 b 432 626 490 731 463 681 l 35 626 l 35 536 l 379 536 l 338 464 l 35 464 l 35 374 l 289 374 l 207 238 l 289 193 z "},"≤":{"ha":833,"x_min":0,"x_max":0,"o":"m 111 593 l 661 186 l 721 261 l 269 593 l 721 925 l 661 1000 z m 122 0 l 711 0 l 711 92 l 122 92 z "},"≥":{"ha":833,"x_min":0,"x_max":0,"o":"m 171 1000 l 111 925 l 563 593 l 111 261 l 171 186 l 721 593 z m 122 0 l 711 0 l 711 92 l 122 92 z "},"◊":{"ha":833,"x_min":0,"x_max":0,"o":"m 743 417 l 447 900 l 383 900 l 90 417 l 385 -65 l 449 -65 z m 668 415 l 444 47 b 419 -4 436 32 424 8 l 415 -4 b 389 47 411 7 403 25 l 164 419 l 386 786 b 414 840 397 806 407 822 l 417 840 b 443 786 422 826 433 801 z "},"ˉ":{"ha":833,"x_min":0,"x_max":0,"o":"m 597 725 l 597 803 l 236 803 l 236 725 z "},"₧":{"ha":833,"x_min":0,"x_max":0,"o":"m 157 78 l 157 358 l 207 358 b 417 615 346 356 417 458 b 250 833 417 771 340 833 l 21 833 l 21 756 l 79 756 l 79 78 l 21 78 l 21 0 l 258 0 l 258 78 z m 617 729 l 539 729 l 539 575 l 453 575 l 453 497 l 539 497 l 539 181 b 653 -17 539 44 582 -17 b 813 33 711 -17 772 10 l 794 107 b 678 61 760 81 722 61 b 617 219 615 61 617 147 l 617 497 l 743 497 l 743 575 l 617 575 z m 157 756 l 239 756 b 339 614 304 756 339 718 b 206 436 339 497 307 436 l 157 436 z "},"‛":{"ha":833,"x_min":0,"x_max":0,"o":"m 528 628 b 447 669 497 635 469 647 b 529 754 493 672 529 707 b 433 850 529 810 489 850 b 332 738 372 850 332 796 b 528 547 332 636 438 567 z "},"⌐":{"ha":833,"x_min":0,"x_max":0,"o":"m 103 0 l 103 322 l 792 322 l 792 383 l 42 383 l 42 0 z "},"╠":{"ha":833,"x_min":0,"x_max":0,"o":"m 267 -400 l 367 -400 l 367 1100 l 267 1100 z m 467 -400 l 567 -400 l 567 200 l 861 200 l 861 300 l 467 300 z m 467 400 l 861 400 l 861 500 l 567 500 l 567 1100 l 467 1100 z "},"ⁿ":{"ha":833,"x_min":0,"x_max":0,"o":"m 315 757 b 451 800 358 781 403 800 b 528 675 531 800 528 747 l 528 542 l 461 542 l 461 492 l 651 492 l 651 542 l 588 542 l 588 699 b 458 850 588 790 542 850 b 315 810 397 850 358 832 l 315 822 b 288 864 315 840 314 864 b 263 851 276 864 269 858 b 210 832 249 836 231 835 l 183 828 l 193 782 l 256 792 l 256 542 l 196 542 l 196 492 l 386 492 l 386 542 l 315 542 z "},"╥":{"ha":833,"x_min":0,"x_max":0,"o":"m -28 300 l 267 300 l 267 -400 l 367 -400 l 367 300 l 467 300 l 467 -400 l 567 -400 l 567 300 l 861 300 l 861 400 l -28 400 z "},"┴":{"ha":833,"x_min":0,"x_max":0,"o":"m -28 300 l 861 300 l 861 400 l 467 400 l 467 1100 l 367 1100 l 367 400 l -28 400 z "},"╦":{"ha":833,"x_min":0,"x_max":0,"o":"m -28 200 l 267 200 l 267 -400 l 367 -400 l 367 300 l -28 300 z m -28 400 l 861 400 l 861 500 l -28 500 z m 467 -400 l 567 -400 l 567 200 l 861 200 l 861 300 l 467 300 z "},"╕":{"ha":833,"x_min":0,"x_max":0,"o":"m 467 500 l -28 500 l -28 400 l 367 400 l 367 300 l -28 300 l -28 200 l 367 200 l 367 -400 l 467 -400 z "},"╟":{"ha":833,"x_min":0,"x_max":0,"o":"m 267 -400 l 367 -400 l 367 1100 l 267 1100 z m 467 -400 l 567 -400 l 567 300 l 861 300 l 861 400 l 567 400 l 567 1100 l 467 1100 z "},"└":{"ha":833,"x_min":0,"x_max":0,"o":"m 367 300 l 861 300 l 861 400 l 467 400 l 467 1100 l 367 1100 z "},"∕":{"ha":833,"x_min":0,"x_max":0,"o":"m 582 879 l 196 -6 l 251 -39 l 638 847 z "},"╞":{"ha":833,"x_min":0,"x_max":0,"o":"m 861 300 l 467 300 l 467 400 l 861 400 l 861 500 l 467 500 l 467 1100 l 367 1100 l 367 -400 l 467 -400 l 467 200 l 861 200 z "},"╛":{"ha":833,"x_min":0,"x_max":0,"o":"m 467 1100 l 367 1100 l 367 500 l -28 500 l -28 400 l 367 400 l 367 300 l -28 300 l -28 200 l 467 200 z "},"↑":{"ha":833,"x_min":0,"x_max":0,"o":"m 447 728 b 618 660 479 707 583 660 b 640 679 629 660 640 667 b 613 708 640 692 621 703 b 442 882 549 751 481 815 b 417 911 438 890 428 911 b 392 882 406 911 396 890 b 221 708 353 815 285 751 b 193 679 213 703 193 692 b 215 660 193 667 204 660 b 386 728 250 660 354 707 l 386 89 l 447 89 z "},"Ω":{"ha":833,"x_min":0,"x_max":0,"o":"m 417 772 b 682 463 585 772 682 608 b 465 174 682 319 615 194 l 465 0 l 768 0 l 768 78 l 546 78 l 546 128 b 772 467 694 163 772 326 b 417 850 772 663 633 850 b 61 467 200 850 61 663 b 288 128 61 326 139 163 l 288 78 l 65 78 l 65 0 l 368 0 l 368 174 b 151 463 218 194 151 319 b 417 772 151 608 249 772 z "},"↓":{"ha":833,"x_min":0,"x_max":0,"o":"m 447 911 l 386 911 l 386 272 b 215 340 354 293 250 340 b 193 321 204 340 193 333 b 221 292 193 308 213 297 b 392 118 285 249 353 185 b 417 89 396 110 406 89 b 442 118 428 89 438 110 b 613 292 481 185 549 249 b 640 321 621 297 640 308 b 618 340 640 333 629 340 b 447 272 583 340 479 293 z "},"│":{"ha":833,"x_min":0,"x_max":0,"o":"m 367 -400 l 467 -400 l 467 1100 l 367 1100 z "},"Γ":{"ha":833,"x_min":0,"x_max":0,"o":"m 242 833 l 242 0 l 328 0 l 328 756 l 642 756 l 642 833 z "},"Θ":{"ha":833,"x_min":0,"x_max":0,"o":"m 417 -17 b 789 417 588 -17 789 129 b 417 850 789 704 588 850 b 44 417 246 850 44 704 b 417 -17 44 129 246 -17 z m 417 61 b 135 417 232 61 135 250 b 417 772 135 583 232 772 b 699 417 601 772 699 583 b 417 61 699 250 601 61 z m 215 456 l 215 392 l 618 392 l 618 456 z "},"Φ":{"ha":833,"x_min":0,"x_max":0,"o":"m 374 850 l 374 772 b 47 417 178 775 47 606 b 374 61 47 228 178 58 l 374 -17 l 460 -17 l 460 61 b 786 417 656 58 786 228 b 460 772 786 606 656 775 l 460 850 z m 374 125 b 138 417 218 122 138 274 b 374 708 138 560 218 711 z m 460 708 b 696 417 615 711 696 560 b 460 125 696 274 615 122 z "},"╢":{"ha":833,"x_min":0,"x_max":0,"o":"m -28 300 l 267 300 l 267 -400 l 367 -400 l 367 1100 l 267 1100 l 267 400 l -28 400 z m 467 -400 l 567 -400 l 567 1100 l 467 1100 z "},"α":{"ha":833,"x_min":0,"x_max":0,"o":"m 354 61 b 189 288 232 61 189 192 b 354 514 189 383 232 514 b 519 288 476 514 519 383 b 354 61 519 192 476 61 z m 583 408 b 354 592 549 514 475 592 b 99 288 185 592 99 451 b 354 -17 99 124 185 -17 b 578 182 476 -17 542 72 l 625 0 l 701 0 l 615 296 l 721 581 l 650 601 z "},"╝":{"ha":833,"x_min":0,"x_max":0,"o":"m -28 200 l 567 200 l 567 1100 l 467 1100 l 467 300 l -28 300 z m -28 400 l 367 400 l 367 1100 l 267 1100 l 267 500 l -28 500 z "},"╪":{"ha":833,"x_min":0,"x_max":0,"o":"m -28 400 l 367 400 l 367 300 l -28 300 l -28 200 l 367 200 l 367 -400 l 467 -400 l 467 200 l 861 200 l 861 300 l 467 300 l 467 400 l 861 400 l 861 500 l 467 500 l 467 1100 l 367 1100 l 367 500 l -28 500 z "},"╖":{"ha":833,"x_min":0,"x_max":0,"o":"m -28 300 l 267 300 l 267 -400 l 367 -400 l 367 300 l 467 300 l 467 -400 l 567 -400 l 567 400 l -28 400 z "},"δ":{"ha":833,"x_min":0,"x_max":0,"o":"m 615 274 b 414 61 615 160 531 61 b 218 267 301 61 218 160 b 414 478 218 382 296 478 b 615 274 531 478 615 390 z m 281 756 l 643 756 l 643 833 l 194 833 l 194 725 l 410 564 b 128 272 281 558 128 476 b 414 -17 128 117 256 -17 b 706 279 579 -17 706 115 b 507 583 706 421 611 504 z "},"ε":{"ha":833,"x_min":0,"x_max":0,"o":"m 444 357 b 331 438 375 357 331 375 b 438 514 331 503 381 514 b 515 488 469 514 494 501 l 554 544 b 414 592 524 571 479 592 b 240 438 313 592 240 524 b 326 315 240 388 269 336 b 206 160 247 289 206 232 b 428 -17 206 50 307 -17 b 628 24 494 -17 571 -6 l 606 93 b 449 61 560 74 506 61 b 296 167 374 61 296 100 b 431 279 296 240 353 279 l 471 279 l 471 357 z "},"╓":{"ha":833,"x_min":0,"x_max":0,"o":"m 861 400 l 267 400 l 267 -400 l 367 -400 l 367 300 l 467 300 l 467 -400 l 567 -400 l 567 300 l 861 300 z "},"σ":{"ha":833,"x_min":0,"x_max":0,"o":"m 771 592 l 521 592 b 244 531 424 592 325 592 b 128 288 169 474 128 381 b 417 -17 128 128 250 -17 b 700 288 583 -17 700 128 b 567 531 700 381 651 481 l 569 533 l 771 524 z m 218 288 b 414 514 218 404 296 514 b 610 288 532 514 610 404 b 414 61 610 171 532 61 b 218 288 296 61 218 171 z "},"←":{"ha":833,"x_min":0,"x_max":0,"o":"m 189 531 b 257 701 210 563 257 667 b 238 724 257 713 250 724 b 208 696 225 724 214 704 b 35 525 165 632 101 564 b 6 500 26 521 6 511 b 35 475 6 489 26 479 b 208 304 101 436 165 368 b 238 276 214 296 225 276 b 257 299 250 276 257 288 b 189 469 257 333 210 438 l 828 469 l 828 531 z "},"╘":{"ha":833,"x_min":0,"x_max":0,"o":"m 367 200 l 861 200 l 861 300 l 467 300 l 467 400 l 861 400 l 861 500 l 467 500 l 467 1100 l 367 1100 z "},"τ":{"ha":833,"x_min":0,"x_max":0,"o":"m 657 575 l 313 575 b 208 558 276 575 244 571 l 176 547 l 176 475 b 317 497 226 494 272 497 l 374 497 l 374 0 l 460 0 l 460 497 l 657 497 z "},"↔":{"ha":833,"x_min":0,"x_max":0,"o":"m 644 469 b 576 299 624 438 576 333 b 596 276 576 288 583 276 b 625 304 608 276 619 296 b 799 475 668 368 732 436 b 828 500 807 479 828 489 b 799 525 828 511 807 521 b 625 696 732 564 668 632 b 596 724 619 704 608 724 b 576 701 583 724 576 713 b 644 531 576 667 624 563 l 189 531 b 257 701 210 563 257 667 b 238 724 257 713 250 724 b 208 696 225 724 214 704 b 35 525 165 632 101 564 b 6 500 26 521 6 511 b 35 475 6 489 26 479 b 208 304 101 436 165 368 b 238 276 214 296 225 276 b 257 299 250 276 257 288 b 189 469 257 333 210 438 z "},"╜":{"ha":833,"x_min":0,"x_max":0,"o":"m 567 1100 l 467 1100 l 467 400 l 367 400 l 367 1100 l 267 1100 l 267 400 l -28 400 l -28 300 l 567 300 z "},"╣":{"ha":833,"x_min":0,"x_max":0,"o":"m 467 -400 l 567 -400 l 567 1100 l 467 1100 z m 367 1100 l 267 1100 l 267 500 l -28 500 l -28 400 l 367 400 z m 367 300 l -28 300 l -28 200 l 267 200 l 267 -400 l 367 -400 z "},"├":{"ha":833,"x_min":0,"x_max":0,"o":"m 367 -400 l 467 -400 l 467 300 l 861 300 l 861 400 l 467 400 l 467 1100 l 367 1100 z "},"╗":{"ha":833,"x_min":0,"x_max":0,"o":"m -28 200 l 267 200 l 267 -400 l 367 -400 l 367 300 l -28 300 z m -28 400 l 467 400 l 467 -400 l 567 -400 l 567 500 l -28 500 z "},"╔":{"ha":833,"x_min":0,"x_max":0,"o":"m 267 -400 l 367 -400 l 367 400 l 861 400 l 861 500 l 267 500 z m 467 -400 l 567 -400 l 567 200 l 861 200 l 861 300 l 467 300 z "},"↕":{"ha":833,"x_min":0,"x_max":0,"o":"m 386 272 b 215 340 354 293 250 340 b 193 321 204 340 193 333 b 221 292 193 308 213 297 b 392 118 285 249 353 185 b 417 89 396 110 406 89 b 442 118 428 89 438 110 b 613 292 481 185 549 249 b 640 321 621 297 640 308 b 618 340 640 333 629 340 b 447 272 583 340 479 293 l 447 728 b 618 660 479 707 583 660 b 640 679 629 660 640 667 b 613 708 640 692 621 703 b 442 882 549 751 481 815 b 417 911 438 890 428 911 b 392 882 406 911 396 890 b 221 708 353 815 285 751 b 193 679 213 703 193 692 b 215 660 193 667 204 660 b 386 728 250 660 354 707 z "},"↨":{"ha":833,"x_min":0,"x_max":0,"o":"m 386 363 b 215 431 354 383 250 431 b 193 411 204 431 193 424 b 221 382 193 399 213 388 b 392 208 285 339 353 275 b 417 179 396 200 406 179 b 442 208 428 179 438 200 b 613 382 481 275 549 339 b 640 411 621 388 640 399 b 618 431 640 424 629 431 b 447 363 583 431 479 383 l 447 818 b 618 750 479 797 583 750 b 640 769 629 750 640 757 b 613 799 640 782 621 793 b 442 972 549 842 481 906 b 417 1001 438 981 428 1001 b 392 972 406 1001 396 981 b 221 799 353 906 285 842 b 193 769 213 793 193 782 b 215 750 193 757 204 750 b 386 818 250 750 354 797 z m 640 61 l 193 61 l 193 0 l 640 0 z "},"█":{"ha":833,"x_min":0,"x_max":0,"o":"m 0 -400 l 833 -400 l 833 1100 l 0 1100 z "},"╫":{"ha":833,"x_min":0,"x_max":0,"o":"m 467 -400 l 567 -400 l 567 300 l 861 300 l 861 400 l 567 400 l 567 1100 l 467 1100 l 467 400 l 367 400 l 367 1100 l 267 1100 l 267 400 l -28 400 l -28 300 l 267 300 l 267 -400 l 367 -400 l 367 300 l 467 300 z "},"║":{"ha":833,"x_min":0,"x_max":0,"o":"m 267 -400 l 367 -400 l 367 1100 l 267 1100 z m 467 -400 l 567 -400 l 567 1100 l 467 1100 z "},"╤":{"ha":833,"x_min":0,"x_max":0,"o":"m -28 200 l 367 200 l 367 -400 l 467 -400 l 467 200 l 861 200 l 861 300 l -28 300 z m -28 400 l 861 400 l 861 500 l -28 500 z "},"♢":{"ha":833,"x_min":0,"x_max":0,"o":"m 417 989 b 4 486 300 810 156 643 b 417 -17 156 329 300 163 b 829 486 533 163 678 329 b 417 989 678 643 533 810 z m 417 15 b 32 486 311 181 174 338 b 417 957 174 635 311 792 b 801 486 522 792 660 635 b 417 15 660 338 522 181 z "},"○":{"ha":833,"x_min":0,"x_max":0,"o":"m 99 350 b 417 32 99 175 242 32 b 735 350 592 32 735 175 b 417 668 735 525 592 668 b 99 350 242 668 99 525 z m 157 350 b 417 610 157 492 274 610 b 676 350 560 610 676 492 b 417 90 676 207 560 90 b 157 350 274 90 157 207 z "},"♣":{"ha":833,"x_min":0,"x_max":0,"o":"m 699 0 l 690 29 b 424 411 539 64 424 129 l 426 411 b 639 219 456 322 538 219 b 829 444 761 219 829 335 b 678 667 829 533 774 667 b 558 625 629 667 592 646 b 603 772 585 676 603 714 b 417 989 603 872 536 989 b 231 772 297 989 231 872 b 275 625 231 714 249 676 b 156 667 242 646 204 667 b 4 444 60 667 4 533 b 194 219 4 335 72 219 b 407 411 296 219 378 322 l 410 411 b 143 29 410 129 294 64 l 135 0 z "},"♦":{"ha":833,"x_min":0,"x_max":0,"o":"m 417 989 b 4 486 300 810 156 643 b 417 -17 156 329 300 163 b 829 486 533 163 678 329 b 417 989 678 643 533 810 z "},"ϕ":{"ha":833,"x_min":0,"x_max":0,"o":"m 460 475 b 628 283 568 464 628 388 b 460 92 628 179 568 103 z m 374 608 l 374 539 b 115 283 235 529 115 428 b 374 28 115 139 235 38 l 374 -42 l 460 -42 l 460 28 b 718 283 599 38 718 139 b 460 539 718 428 599 529 l 460 608 z m 374 92 b 206 283 265 103 206 179 b 374 475 206 388 265 464 z "},"▓":{"ha":833,"x_min":0,"x_max":0,"o":"m 192 -128 l 192 7 l 0 7 l 0 -128 z m 278 -264 l 278 -129 l 86 -129 l 86 -264 z m 278 8 l 278 143 l 86 143 l 86 8 z m 192 -400 l 192 -265 l 0 -265 l 0 -400 z m 469 -128 l 469 7 l 278 7 l 278 -128 z m 556 -264 l 556 -129 l 364 -129 l 364 -264 z m 556 8 l 556 143 l 364 143 l 364 8 z m 469 -400 l 469 -265 l 278 -265 l 278 -400 z m 747 -128 l 747 7 l 556 7 l 556 -128 z m 833 -264 l 833 -129 l 642 -129 l 642 -264 z m 833 8 l 833 143 l 642 143 l 642 8 z m 747 -400 l 747 -265 l 556 -265 l 556 -400 z m 278 829 l 278 964 l 86 964 l 86 829 z m 192 965 l 192 1100 l 0 1100 l 0 965 z m 192 693 l 192 828 l 0 828 l 0 693 z m 556 829 l 556 964 l 364 964 l 364 829 z m 469 965 l 469 1100 l 278 1100 l 278 965 z m 469 693 l 469 828 l 278 828 l 278 693 z m 833 829 l 833 964 l 642 964 l 642 829 z m 747 965 l 747 1100 l 556 1100 l 556 965 z m 747 693 l 747 828 l 556 828 l 556 693 z m 192 146 l 192 281 l 0 281 l 0 146 z m 278 282 l 278 417 l 86 417 l 86 282 z m 469 146 l 469 281 l 278 281 l 278 146 z m 556 282 l 556 417 l 364 417 l 364 282 z m 747 146 l 747 281 l 556 281 l 556 146 z m 833 282 l 833 417 l 642 417 l 642 282 z m 192 419 l 192 554 l 0 554 l 0 419 z m 278 556 l 278 690 l 86 690 l 86 556 z m 469 419 l 469 554 l 278 554 l 278 419 z m 556 556 l 556 690 l 364 690 l 364 556 z m 747 419 l 747 554 l 556 554 l 556 419 z m 833 556 l 833 690 l 642 690 l 642 556 z "},"─":{"ha":833,"x_min":0,"x_max":0,"o":"m -28 300 l 861 300 l 861 400 l -28 400 z "},"╚":{"ha":833,"x_min":0,"x_max":0,"o":"m 267 200 l 861 200 l 861 300 l 367 300 l 367 1100 l 267 1100 z m 467 400 l 861 400 l 861 500 l 567 500 l 567 1100 l 467 1100 z "},"◀":{"ha":833,"x_min":0,"x_max":0,"o":"m 746 853 l 88 500 l 746 147 z "},"⌄":{"ha":833,"x_min":0,"x_max":0,"o":"m 143 944 l 371 496 l 463 496 l 690 944 l 588 944 l 417 608 l 246 944 z "},"­":{"ha":833,"x_min":0,"x_max":0,"o":"m 594 378 l 594 456 l 236 456 l 236 378 z "},"╬":{"ha":833,"x_min":0,"x_max":0,"o":"m -28 200 l 267 200 l 267 -400 l 367 -400 l 367 300 l -28 300 z m -28 400 l 367 400 l 367 1100 l 267 1100 l 267 500 l -28 500 z m 467 -400 l 567 -400 l 567 200 l 861 200 l 861 300 l 467 300 z m 467 400 l 861 400 l 861 500 l 567 500 l 567 1100 l 467 1100 z "},"▄":{"ha":833,"x_min":0,"x_max":0,"o":"m 0 -400 l 833 -400 l 833 350 l 0 350 z "},"♬":{"ha":833,"x_min":0,"x_max":0,"o":"m 757 281 b 679 296 735 290 704 296 b 506 132 593 296 506 222 b 601 44 506 75 544 44 b 818 288 725 44 818 119 l 818 1006 l 267 850 l 267 199 b 189 214 244 208 214 214 b 15 50 103 214 15 140 b 111 -37 15 -7 54 -37 b 328 206 235 -37 328 38 l 328 540 l 757 669 z m 328 650 l 328 750 l 757 881 l 757 781 z "},"⋅":{"ha":833,"x_min":0,"x_max":0,"o":"m 347 500 b 397 450 347 472 369 450 b 447 500 425 450 447 472 b 397 550 447 528 425 550 b 347 500 369 550 347 528 z "},"≡":{"ha":833,"x_min":0,"x_max":0,"o":"m 799 710 l 35 710 l 35 618 l 799 618 z m 799 546 l 35 546 l 35 454 l 799 454 z m 799 382 l 35 382 l 35 290 l 799 290 z "},"♀":{"ha":833,"x_min":0,"x_max":0,"o":"m 442 0 l 442 238 l 617 238 l 617 288 l 442 288 l 442 439 b 642 667 565 460 642 556 b 417 889 642 790 543 889 b 192 667 293 889 192 790 b 392 439 192 556 271 460 l 392 288 l 217 288 l 217 238 l 392 238 l 392 0 z m 236 664 b 415 844 236 765 315 844 b 597 664 518 844 597 765 b 415 483 597 563 518 483 b 236 664 315 483 236 563 z "},"╡":{"ha":833,"x_min":0,"x_max":0,"o":"m -28 200 l 367 200 l 367 -400 l 467 -400 l 467 1100 l 367 1100 l 367 500 l -28 500 l -28 400 l 367 400 l 367 300 l -28 300 z "},"╒":{"ha":833,"x_min":0,"x_max":0,"o":"m 367 -400 l 467 -400 l 467 200 l 861 200 l 861 300 l 467 300 l 467 400 l 861 400 l 861 500 l 367 500 z "},"μ":{"ha":833,"x_min":0,"x_max":0,"o":"m 575 265 b 417 61 575 135 510 61 b 258 251 324 61 258 121 l 258 575 l 172 575 l 172 -274 l 258 -274 l 258 53 l 260 53 b 419 -17 299 7 358 -17 b 574 57 479 -17 538 11 l 575 57 l 575 0 l 661 0 l 661 575 l 575 575 z "},"┤":{"ha":833,"x_min":0,"x_max":0,"o":"m -28 300 l 367 300 l 367 -400 l 467 -400 l 467 1100 l 367 1100 l 367 400 l -28 400 z "},"╙":{"ha":833,"x_min":0,"x_max":0,"o":"m 267 300 l 861 300 l 861 400 l 567 400 l 567 1100 l 467 1100 l 467 400 l 367 400 l 367 1100 l 267 1100 z "},"▬":{"ha":833,"x_min":0,"x_max":0,"o":"m 139 361 l 694 361 l 694 639 l 139 639 z "},"♥":{"ha":833,"x_min":0,"x_max":0,"o":"m 418 -17 b 668 431 458 150 565 294 b 829 782 742 531 829 654 b 629 989 829 897 747 989 b 418 788 519 989 439 888 l 415 788 b 204 989 394 888 314 989 b 4 782 86 989 4 897 b 165 431 4 654 92 531 b 415 -17 268 294 375 150 z "},"→":{"ha":833,"x_min":0,"x_max":0,"o":"m 6 531 l 6 469 l 644 469 b 576 299 624 438 576 333 b 596 276 576 288 583 276 b 625 304 608 276 619 296 b 799 475 668 368 732 436 b 828 500 807 479 828 489 b 799 525 828 511 807 521 b 625 696 732 564 668 632 b 596 724 619 704 608 724 b 576 701 583 724 576 713 b 644 531 576 667 624 563 z "},"⌙":{"ha":833,"x_min":0,"x_max":0,"o":"m 42 383 l 42 0 l 792 0 l 792 61 l 103 61 l 103 383 z "},"⌂":{"ha":833,"x_min":0,"x_max":0,"o":"m 819 0 l 819 564 l 417 799 l 14 564 l 14 0 z m 56 42 l 56 543 l 417 754 l 778 543 l 778 42 z "},"╧":{"ha":833,"x_min":0,"x_max":0,"o":"m -28 200 l 861 200 l 861 300 l -28 300 z m -28 400 l 861 400 l 861 500 l 467 500 l 467 1100 l 367 1100 l 367 500 l -28 500 z "},"╨":{"ha":833,"x_min":0,"x_max":0,"o":"m -28 300 l 861 300 l 861 400 l 567 400 l 567 1100 l 467 1100 l 467 400 l 367 400 l 367 1100 l 267 1100 l 267 400 l -28 400 z "},"":{"ha":833,"x_min":0,"x_max":0,"o":"m 57 64 l 22 64 l 22 0 l 190 0 b 364 417 286 0 364 131 b 133 833 364 703 278 833 l 22 833 l 22 769 l 57 769 z m 135 769 l 169 769 b 286 417 226 769 286 625 b 169 64 286 208 239 64 l 135 64 z m 776 769 l 811 769 l 811 833 l 704 833 l 596 507 l 593 507 l 510 833 l 378 833 l 378 769 l 413 769 l 413 64 l 378 64 l 378 0 l 546 0 l 546 64 l 490 64 l 490 658 l 493 658 l 593 285 l 596 285 l 696 658 l 699 658 l 699 64 l 643 64 l 643 0 l 811 0 l 811 64 l 776 64 z "},"⌡":{"ha":833,"x_min":0,"x_max":0,"o":"m 449 1100 l 388 1100 l 388 525 b 321 176 388 425 358 263 b 207 83 283 92 239 83 b 60 301 94 83 160 301 b 3 221 15 301 3 257 b 192 28 3 125 85 28 b 449 733 465 28 449 544 z "},"⌠":{"ha":833,"x_min":0,"x_max":0,"o":"m 388 -400 l 449 -400 l 449 175 b 515 524 449 275 478 438 b 629 617 553 608 597 617 b 776 399 742 617 676 399 b 833 479 821 399 833 443 b 644 672 833 575 751 672 b 388 -33 371 672 388 156 z "},"╩":{"ha":833,"x_min":0,"x_max":0,"o":"m -28 200 l 861 200 l 861 300 l -28 300 z m -28 400 l 367 400 l 367 1100 l 267 1100 l 267 500 l -28 500 z m 467 400 l 861 400 l 861 500 l 567 500 l 567 1100 l 467 1100 z "},"∩":{"ha":833,"x_min":0,"x_max":0,"o":"m 819 0 l 819 601 b 417 1019 819 836 646 1019 b 14 601 188 1019 14 836 l 14 0 l 111 0 l 111 600 b 417 928 111 790 263 928 b 722 600 571 928 722 790 l 722 0 z "}," ":{"ha":833,"x_min":0,"x_max":0,"o":""},"◘":{"ha":833,"x_min":0,"x_max":0,"o":"m 0 -400 l 833 -400 l 833 1100 l 0 1100 z m 246 350 b 417 521 246 443 324 521 b 588 350 510 521 588 443 b 417 179 588 254 510 179 b 246 350 321 179 246 254 z "},"◙":{"ha":833,"x_min":0,"x_max":0,"o":"m 0 -400 l 833 -400 l 833 1100 l 0 1100 z m 99 350 b 417 668 99 525 242 668 b 735 350 592 668 735 525 b 417 32 735 175 592 32 b 99 350 242 32 99 175 z m 182 350 b 417 117 182 221 288 117 b 651 350 546 117 651 221 b 417 583 651 478 546 583 b 182 350 288 583 182 478 z "},"┌":{"ha":833,"x_min":0,"x_max":0,"o":"m 367 -400 l 467 -400 l 467 300 l 861 300 l 861 400 l 367 400 z "},"┘":{"ha":833,"x_min":0,"x_max":0,"o":"m 467 1100 l 367 1100 l 367 400 l -28 400 l -28 300 l 467 300 z "},"☻":{"ha":833,"x_min":0,"x_max":0,"o":"m 14 458 b 417 56 14 233 190 56 b 819 458 643 56 819 233 b 417 861 819 683 643 861 b 14 458 190 861 14 683 z m 183 596 b 253 665 183 635 214 665 b 322 596 292 665 322 635 b 253 526 322 557 292 526 b 183 596 214 526 183 557 z m 511 596 b 581 665 511 635 542 665 b 650 596 619 665 650 635 b 581 526 650 557 619 526 b 511 596 542 526 511 557 z m 417 153 b 222 239 353 153 275 175 b 225 325 175 294 204 363 b 417 200 283 219 358 200 b 608 325 475 200 550 219 b 611 239 629 363 658 294 b 417 153 558 175 481 153 z "},"═":{"ha":833,"x_min":0,"x_max":0,"o":"m -28 400 l 861 400 l 861 500 l -28 500 z m -28 200 l 861 200 l 861 300 l -28 300 z "},"▌":{"ha":833,"x_min":0,"x_max":0,"o":"m 0 -400 l 417 -400 l 417 1100 l 0 1100 z "},"┐":{"ha":833,"x_min":0,"x_max":0,"o":"m 467 400 l -28 400 l -28 300 l 367 300 l 367 -400 l 467 -400 z "},"░":{"ha":833,"x_min":0,"x_max":0,"o":"m 0 -400 l 139 -400 l 139 -264 l 0 -264 z m 278 -400 l 417 -400 l 417 -264 l 278 -264 z m 556 -400 l 694 -400 l 694 -264 l 556 -264 z m 0 964 l 139 964 l 139 1100 l 0 1100 z m 278 964 l 417 964 l 417 1100 l 278 1100 z m 556 964 l 694 964 l 694 1100 l 556 1100 z m 0 690 l 139 690 l 139 826 l 0 826 z m 278 690 l 417 690 l 417 826 l 278 826 z m 556 690 l 694 690 l 694 826 l 556 826 z m 0 -126 l 139 -126 l 139 10 l 0 10 z m 278 -126 l 417 -126 l 417 10 l 278 10 z m 556 -126 l 694 -126 l 694 10 l 556 10 z m 0 146 l 139 146 l 139 282 l 0 282 z m 278 146 l 417 146 l 417 282 l 278 282 z m 556 146 l 694 146 l 694 282 l 556 282 z m 0 418 l 139 418 l 139 554 l 0 554 z m 278 418 l 417 418 l 417 554 l 278 554 z m 556 418 l 694 418 l 694 554 l 556 554 z "},"■":{"ha":833,"x_min":0,"x_max":0,"o":"m 139 139 l 694 139 l 694 694 l 139 694 z "},"┬":{"ha":833,"x_min":0,"x_max":0,"o":"m -28 300 l 367 300 l 367 -400 l 467 -400 l 467 300 l 861 300 l 861 400 l -28 400 z "},"♂":{"ha":833,"x_min":0,"x_max":0,"o":"m 424 194 b 169 194 351 124 239 124 b 168 450 96 267 96 378 b 424 449 239 522 351 522 b 424 194 494 378 494 267 z m 438 499 b 135 479 335 572 213 558 b 136 164 47 392 47 253 b 453 161 224 76 365 74 b 472 464 531 240 543 364 l 708 700 l 763 556 l 765 556 l 765 792 l 529 792 l 529 789 l 674 736 z "},"♪":{"ha":833,"x_min":0,"x_max":0,"o":"m 397 251 b 319 267 375 261 344 267 b 147 103 233 267 147 192 b 243 14 147 44 186 14 b 458 254 365 14 458 92 l 458 690 b 624 439 569 672 624 540 b 564 225 624 358 604 293 l 604 225 b 686 456 657 286 686 375 b 544 797 686 593 631 693 l 490 861 l 458 901 l 458 989 l 397 989 z "},"┼":{"ha":833,"x_min":0,"x_max":0,"o":"m -28 300 l 367 300 l 367 -400 l 467 -400 l 467 300 l 861 300 l 861 400 l 467 400 l 467 1100 l 367 1100 l 367 400 l -28 400 z "},"‾":{"ha":833,"x_min":0,"x_max":0,"o":"m 739 -144 l 739 -68 l 94 -68 l 94 -144 z "},"▐":{"ha":833,"x_min":0,"x_max":0,"o":"m 417 -400 l 833 -400 l 833 1100 l 417 1100 z "},"▒":{"ha":833,"x_min":0,"x_max":0,"o":"m 0 -400 l 138 -400 l 138 -265 l 0 -265 z m 278 -400 l 415 -400 l 415 -265 l 278 -265 z m 556 -400 l 693 -400 l 693 -265 l 556 -265 z m 0 965 l 138 965 l 138 1100 l 0 1100 z m 278 965 l 415 965 l 415 1100 l 278 1100 z m 556 965 l 693 965 l 693 1100 l 556 1100 z m 0 693 l 138 693 l 138 828 l 0 828 z m 278 693 l 415 693 l 415 828 l 278 828 z m 556 693 l 693 693 l 693 828 l 556 828 z m 0 -128 l 138 -128 l 138 7 l 0 7 z m 278 -128 l 415 -128 l 415 7 l 278 7 z m 556 -128 l 693 -128 l 693 7 l 556 7 z m 0 146 l 138 146 l 138 281 l 0 281 z m 278 146 l 415 146 l 415 281 l 278 281 z m 556 146 l 693 146 l 693 281 l 556 281 z m 0 419 l 138 419 l 138 554 l 0 554 z m 278 419 l 415 419 l 415 554 l 278 554 z m 556 419 l 693 419 l 693 554 l 556 554 z m 139 829 l 276 829 l 276 964 l 139 964 z m 417 829 l 554 829 l 554 964 l 417 964 z m 694 829 l 833 829 l 833 964 l 694 964 z m 139 556 l 276 556 l 276 690 l 139 690 z m 417 556 l 554 556 l 554 690 l 417 690 z m 694 556 l 833 556 l 833 690 l 694 690 z m 694 282 l 833 282 l 833 417 l 694 417 z m 417 282 l 554 282 l 554 417 l 417 417 z m 139 282 l 276 282 l 276 417 l 139 417 z m 139 8 l 276 8 l 276 143 l 139 143 z m 417 8 l 554 8 l 554 143 l 417 143 z m 694 8 l 833 8 l 833 143 l 694 143 z m 694 -264 l 833 -264 l 833 -129 l 694 -129 z m 417 -264 l 554 -264 l 554 -129 l 417 -129 z m 139 -264 l 276 -264 l 276 -129 l 139 -129 z "},"▶":{"ha":833,"x_min":0,"x_max":0,"o":"m 88 147 l 746 500 l 88 853 z "},"☺":{"ha":833,"x_min":0,"x_max":0,"o":"m 14 458 b 417 56 14 233 190 56 b 819 458 643 56 819 233 b 417 861 819 683 643 861 b 14 458 190 861 14 683 z m 417 840 b 797 458 631 840 797 672 b 417 76 797 244 631 76 b 36 458 203 76 36 244 b 417 840 36 672 203 840 z m 183 596 b 253 526 183 557 214 526 b 322 596 292 526 322 557 b 253 665 322 635 292 665 b 183 596 214 665 183 635 z m 511 596 b 581 526 511 557 542 526 b 650 596 619 526 650 557 b 581 665 650 635 619 665 b 511 596 542 665 511 635 z m 417 153 b 611 239 481 153 558 175 b 608 325 658 294 629 363 b 417 200 550 219 475 200 b 225 325 358 200 283 219 b 222 239 204 363 175 294 b 417 153 275 175 353 153 z "},"♠":{"ha":833,"x_min":0,"x_max":0,"o":"m 753 0 l 747 31 b 429 374 529 38 429 156 l 432 374 b 647 221 471 286 544 221 b 829 399 744 221 829 299 b 644 669 829 518 728 597 b 418 989 538 761 451 846 l 415 989 b 189 669 382 846 296 761 b 4 399 106 597 4 518 b 186 221 4 299 89 221 b 401 374 289 221 363 286 l 404 374 b 86 31 404 156 304 38 l 81 0 z "},"☼":{"ha":833,"x_min":0,"x_max":0,"o":"m 719 713 l 688 743 l 565 622 b 439 674 524 657 482 672 l 439 847 l 394 847 l 394 674 b 267 631 353 671 303 658 l 144 753 l 114 719 l 235 599 b 186 465 201 563 185 521 l 14 465 l 14 421 l 186 421 b 240 296 190 374 207 332 l 119 175 l 150 143 l 271 264 b 394 213 303 235 347 219 l 394 42 l 439 42 l 439 213 b 563 271 486 219 529 239 l 683 150 l 715 182 l 593 304 b 646 421 622 335 639 371 l 819 421 l 819 465 l 647 465 b 597 590 642 508 628 556 z m 231 443 b 414 629 231 546 300 628 b 603 443 526 629 600 549 b 413 257 603 339 528 257 b 231 443 300 257 231 339 z "},"▼":{"ha":833,"x_min":0,"x_max":0,"o":"m 417 169 l 769 828 l 64 828 z "},"▲":{"ha":833,"x_min":0,"x_max":0,"o":"m 64 169 l 769 169 l 417 828 z "},"‐":{"ha":833,"x_min":0,"x_max":0,"o":"m 594 378 l 594 456 l 236 456 l 236 378 z "},"ℓ":{"ha":833,"x_min":0,"x_max":0,"o":"m 682 190 b 472 51 647 126 569 51 b 299 240 388 51 299 110 l 299 264 b 611 722 485 419 611 564 b 433 919 611 824 557 919 b 222 628 335 919 222 856 l 222 292 b 108 208 188 263 149 238 l 136 160 b 222 222 165 179 196 204 b 224 208 222 218 222 214 b 456 -10 232 100 301 -10 b 725 156 567 -10 660 43 z m 299 644 b 431 863 299 810 375 863 b 546 715 517 863 546 796 b 299 338 546 586 436 465 z "},"▀":{"ha":833,"x_min":0,"x_max":0,"o":"m 0 350 l 833 350 l 833 1100 l 0 1100 z "}}}
